<?xml version="1.0" standalone="no"?>
<!DOCTYPE svg PUBLIC "-//W3C//DTD SVG 1.1//EN" "http://www.w3.org/Graphics/SVG/1.1/DTD/svg11.dtd" >
<svg xmlns="http://www.w3.org/2000/svg" xmlns:xlink="http://www.w3.org/1999/xlink" version="1.1">
<metadata></metadata>
<defs>
<font id="hermesregular" horiz-adv-x="1490" >
<font-face units-per-em="2048" ascent="1638" descent="-410" />
<missing-glyph horiz-adv-x="464" />
<glyph horiz-adv-x="0" />
<glyph unicode="&#xd;" horiz-adv-x="464" />
<glyph unicode=" "  horiz-adv-x="464" />
<glyph unicode="&#x09;" horiz-adv-x="464" />
<glyph unicode="&#xa0;" horiz-adv-x="464" />
<glyph unicode="!" horiz-adv-x="563" d="M154 57v115q0 23 8 37t37 14h168q39 0 49 -8t10 -39v-113q0 -29 -9 -46t-44 -17h-162q-41 0 -49 16.5t-8 40.5zM176 1425q0 35 6 54.5t45 19.5h123q35 0 44 -17.5t7 -51.5l-26 -924q0 -37 -7.5 -51.5t-27.5 -14.5h-82q-37 0 -45 11.5t-10 56.5z" />
<glyph unicode="&#x22;" horiz-adv-x="774" d="M123 1434q-4 37 3 51t34 14h127q35 0 43 -17.5t4 -54.5l-33 -458q-4 -35 -15.5 -44.5t-31.5 -9.5h-53q-18 0 -28.5 13.5t-14.5 54.5zM465 1430q-4 37 4 53t39 16h127q29 0 37 -15.5t4 -51.5l-35 -453q-2 -41 -14.5 -52.5t-28.5 -11.5h-51q-23 0 -34 11.5t-15 46.5z" />
<glyph unicode="#" horiz-adv-x="1302" d="M71.5 482.5q-10.5 9.5 0.5 47.5l8 54q4 27 19.5 32t50.5 5h149l66 282h-158q-29 0 -40 9.5t-5 43.5l12 54q6 31 18.5 36t49.5 5h149l88 389q8 35 18.5 47t51.5 12h94q27 0 29 -13t-4 -48q-23 -111 -43 -195l-45 -192h270l88 393q6 31 17.5 43t45.5 12h84q35 0 42.5 -12 t-1.5 -49l-86 -387h146q41 0 50 -8.5t3 -36.5l-10 -58q-6 -29 -21.5 -37t-54.5 -8h-141l-66 -282h152q37 0 46 -7.5t3 -31.5l-8 -50q-8 -35 -22.5 -47t-55.5 -12h-141l-95 -412q-10 -41 -20 -51t-39 -10h-98q-29 0 -34 14.5t5 53.5l92 405h-270l-94 -416q-8 -37 -18.5 -47 t-35.5 -10h-90q-33 0 -43 12.5t0 53.5l92 407h-155q-35 0 -45.5 9.5zM489 621h269l65 282h-270z" />
<glyph unicode="$" horiz-adv-x="1230" d="M102.5 95q-0.5 32 6 69t16.5 64.5t22 25.5q20 -6 52 -19.5t76 -25.5t102.5 -21.5t136.5 -9.5q70 0 132.5 11.5t107.5 36t71.5 64.5t26.5 99q0 49 -14.5 88t-48 73t-89 63.5t-137.5 62.5t-156.5 70.5t-132 91t-91 125t-33.5 172.5q0 66 22.5 128t69.5 112t120.5 86 t176.5 48v152q0 35 12 47t51 12h146q29 0 32.5 -14t3.5 -49v-137q61 -2 103.5 -7.5t70 -11.5t46 -13t30.5 -11q16 -6 17.5 -37t-8 -65t-24.5 -61.5t-32 -23.5q-39 10 -120 27.5t-169 17.5q-166 0 -230.5 -54t-64.5 -146q0 -90 69 -144.5t216 -111.5q207 -84 316.5 -197 t109.5 -281q0 -94 -29.5 -164.5t-81 -120.5t-120 -80t-148.5 -44v-146q0 -35 -7 -46t-34 -11h-145q-33 0 -45 13.5t-12 54.5v116q-158 4 -251.5 31t-129.5 53q-8 6 -8.5 38z" />
<glyph unicode="%" horiz-adv-x="1544" d="M88 993v240q0 143 81 215t216 72q49 0 99.5 -13.5t90 -45t64.5 -84t25 -132.5v-252q0 -74 -25 -123t-64.5 -78.5t-89 -42t-100.5 -12.5q-135 0 -216 62.5t-81 193.5zM256 1010q0 -53 31.5 -88t97.5 -35q63 0 91 39t28 80v202q0 63 -25.5 109.5t-89.5 46.5 q-80 0 -106.5 -46t-26.5 -118v-190zM326.5 13.5q-7.5 13.5 13.5 52.5l715 1390q16 33 28.5 45t51.5 12h94q29 0 30 -13t-18 -48l-717 -1395q-18 -35 -30.5 -46t-36.5 -11h-88q-35 0 -42.5 13.5zM897 231v240q0 145 81 217t216 72q49 0 99 -13.5t90 -45t65 -84t25 -132.5 v-252q0 -74 -25 -123t-65 -78.5t-89 -42t-100 -12.5q-135 0 -216 62.5t-81 191.5zM1063 250q0 -53 32.5 -88t96.5 -35q66 0 93.5 39t27.5 80v203q0 61 -25.5 107t-91.5 46q-78 0 -105.5 -45t-27.5 -117v-190z" />
<glyph unicode="&#x26;" horiz-adv-x="1134" d="M137 360q0 147 80 248t209 135q-127 35 -208 127.5t-81 247.5q0 84 28 151.5t76 117t112.5 80t138.5 42.5v150q0 35 9 47t48 12h149q29 0 33 -13t4 -48v-141q84 -10 141.5 -32t104.5 -50q14 -8 14 -39t-8 -65t-23.5 -57.5t-29.5 -17.5q-59 29 -129 52.5t-158 23.5 q-127 0 -204.5 -63.5t-77.5 -175.5q0 -111 85 -176.5t226 -73.5q31 -2 49 -6.5t18 -32.5v-101q0 -29 -15 -34.5t-44 -8.5q-68 -4 -126 -21t-101 -51t-66.5 -83t-23.5 -115q0 -98 73.5 -158.5t218.5 -60.5q43 0 88.5 7t86 18.5t75.5 27t58 31.5q12 6 27.5 -18.5t26.5 -59.5 t14 -67.5t-11 -40.5q-39 -29 -108.5 -53.5t-167.5 -32.5v-138q0 -35 -8.5 -46t-32.5 -11h-146q-35 0 -47 13.5t-12 54.5v129q-180 23 -272.5 121t-92.5 255z" />
<glyph unicode="'" horiz-adv-x="458" d="M135 1434q-2 37 4 51t33 14h127q35 0 43 -17.5t6 -54.5l-35 -458q-4 -35 -14 -44.5t-33 -9.5h-51q-18 0 -29.5 13.5t-15.5 54.5z" />
<glyph unicode="(" horiz-adv-x="743" d="M150 682q0 143 27.5 277.5t70.5 249t97 204.5t108 146q10 12 43.5 1.5t65.5 -29t52 -41t4 -36.5q-41 -39 -86 -119t-83.5 -185.5t-63.5 -227t-25 -242.5q0 -127 25 -252t60.5 -233.5t77.5 -191.5t79 -128q10 -14 -13.5 -33.5t-58 -35t-68.5 -21.5t-46 6q-37 41 -84 123 t-87 197.5t-67.5 260t-27.5 310.5z" />
<glyph unicode=")" horiz-adv-x="743" d="M106 1464q-12 14 9.5 35t55.5 37t67.5 23.5t46.5 -5.5q49 -49 100 -136t94 -202.5t69.5 -253.5t26.5 -288q0 -158 -27.5 -298t-69.5 -256t-90 -201t-91 -132q-10 -12 -44 -3t-67.5 26.5t-55 39t-9.5 35.5q35 39 78 119t79.5 185.5t61.5 230.5t25 254q0 119 -25 240.5 t-62.5 229t-84 192.5t-87.5 128z" />
<glyph unicode="*" horiz-adv-x="823" d="M63 1212l29 93q10 27 25.5 28.5t44.5 -10.5l196 -84l-18 217q-2 29 2 41t27 12h96q29 0 36 -14t3 -45l-19 -215l203 86q27 12 39 11t18 -21l31 -94q8 -27 -4 -37.5t-41 -16.5l-209 -51l144 -162q20 -23 22 -35t-16 -24l-78 -60q-23 -16 -36 -8t-30 35l-110 184l-113 -186 q-16 -27 -26.5 -33t-26.5 6l-80 58q-23 16 -19.5 31.5t23.5 37.5l141 164l-213 49q-29 6 -39 14.5t-2 28.5z" />
<glyph unicode="+" horiz-adv-x="1077" d="M43 449v94q0 37 13.5 43t47.5 6h334v338q0 31 9.5 45t39.5 14h95q37 0 43 -13t6 -48v-336h330q41 0 56 -5t15 -34v-100q0 -33 -17.5 -39t-58.5 -6h-325v-336q0 -41 -6.5 -56.5t-34.5 -15.5h-98q-35 0 -44.5 17.5t-9.5 58.5v332h-344q-31 0 -41 8t-10 33z" />
<glyph unicode="," horiz-adv-x="501" d="M66 -156q16 37 31.5 81t27.5 89t20.5 89t10.5 79q2 25 9 37t30 12h155q35 0 42 -11t3 -34q-27 -123 -98.5 -222t-161.5 -161q-14 -10 -28.5 -9t-24.5 9.5t-15.5 19.5t-0.5 21z" />
<glyph unicode="-" horiz-adv-x="1050" d="M164 569v101q0 37 14.5 42t48.5 5h588q41 0 58.5 -5t17.5 -34v-100q0 -33 -14.5 -42.5t-61.5 -9.5h-594q-31 0 -44 9.5t-13 33.5z" />
<glyph unicode="." horiz-adv-x="501" d="M117 66v110q0 20 10 37.5t31 17.5h168q45 0 54 -12t9 -35v-110q0 -27 -5 -50.5t-44 -23.5h-158q-39 0 -52 19.5t-13 46.5z" />
<glyph unicode="/" horiz-adv-x="839" d="M38 12.5q-7 12.5 9 53.5l535 1390q12 35 25.5 46t51.5 11h136q27 0 27.5 -13t-13.5 -48l-537 -1395q-16 -37 -27.5 -47t-35.5 -10h-131q-33 0 -40 12.5z" />
<glyph unicode="0" horiz-adv-x="1320" d="M145 428v586q0 152 40 250t111 155.5t168 80t212 22.5q98 0 188 -19.5t159 -74t111 -148.5t42 -242v-565q0 -164 -43 -262t-114 -151.5t-161 -70t-182 -16.5t-186.5 17.5t-171 68t-125 139.5t-48.5 230zM393 440q0 -72 21.5 -123t58.5 -82.5t88 -47t111 -15.5 q63 0 111 13.5t82 47t51.5 93t17.5 151.5v508q0 180 -57.5 257t-198.5 77q-90 0 -146.5 -20.5t-87 -63.5t-41 -108.5t-10.5 -153.5v-533z" />
<glyph unicode="1" horiz-adv-x="804" d="M102 1276v88q0 25 14.5 37t55.5 24l133 54q39 10 53.5 15t38.5 5h144q33 0 37 -16.5t4 -55.5v-1366q0 -37 -7.5 -49t-35.5 -12h-158q-29 0 -38 16.5t-9 53.5v1124q0 23 -7.5 33t-31.5 10h-148q-27 0 -36 18q-6 8 -9 21z" />
<glyph unicode="2" horiz-adv-x="1230" d="M121 49v98q0 123 38 223.5t96 180.5t129 138.5t136 96.5q61 37 121.5 76t107 81t75 85t28.5 88q0 104 -69.5 157.5t-202.5 53.5q-63 0 -114.5 -11t-91.5 -28.5t-71 -36t-53 -30.5q-12 -8 -28.5 18.5t-29 63t-15.5 71.5t11 43q25 14 60 31.5t86 34t121.5 28t167.5 11.5 q215 0 341 -92.5t126 -280.5q0 -94 -40 -170t-102.5 -138.5t-141.5 -113.5t-155 -96q-49 -31 -96 -67t-83 -82t-59.5 -103t-25.5 -129q0 -29 13.5 -37t45.5 -8h580q35 0 49.5 -7.5t14.5 -29.5v-133q0 -35 -35 -35h-893q-14 0 -27.5 10t-13.5 39z" />
<glyph unicode="3" horiz-adv-x="1132" d="M92 108.5q2 32.5 11.5 68.5t24.5 61.5t28 19.5q66 -31 153.5 -58.5t192.5 -27.5q127 0 202.5 61.5t75.5 174.5q0 59 -25.5 105t-68.5 79t-101.5 51.5t-123.5 22.5q-29 2 -43.5 6t-14.5 33v90q0 29 18.5 35t47.5 8q141 10 224 76.5t83 195.5q0 98 -75.5 159.5t-221.5 61.5 q-82 0 -156.5 -26.5t-127.5 -67.5q-12 -8 -26.5 15.5t-24 57t-11.5 65.5t8 42q23 18 53.5 37t74.5 34t105.5 24.5t145.5 9.5q229 0 358.5 -99.5t129.5 -277.5q0 -80 -23.5 -146.5t-62.5 -117t-92.5 -83t-110.5 -46.5q127 -39 208 -130t81 -241q0 -102 -38 -179t-102.5 -128 t-148.5 -77t-176 -26q-152 0 -268.5 33t-172.5 66q-12 6 -10 38.5z" />
<glyph unicode="4" horiz-adv-x="1228" d="M88 326v96q0 25 5 42t16 36l598 932q10 18 28.5 42.5t42.5 24.5h154q29 0 32 -12t3 -39v-971h88q18 0 24 -7t6 -30v-96q0 -27 -6 -39t-28 -12h-84v-258q0 -20 -8.5 -27.5t-32.5 -7.5h-119q-29 0 -41 8t-12 33v252h-623q-23 0 -33 6t-10 27zM315 477h439v688z" />
<glyph unicode="5" horiz-adv-x="1183" d="M119 122q2 34 12 69.5t27.5 61.5t36.5 17q23 -12 56.5 -27.5t76.5 -29.5t94 -24.5t113 -10.5q68 0 117.5 20.5t83.5 56.5t50.5 82t16.5 99q0 98 -47 165t-140 112q-29 14 -70.5 27.5t-88.5 24.5t-95.5 19.5t-89.5 12.5q-35 4 -56 27.5t-21 66.5v559q0 29 13 39t30 10h747 q16 0 26.5 -7t10.5 -28v-133q0 -23 -15.5 -30t-50.5 -7h-483q-33 0 -45 -8t-12 -37v-241q0 -29 47 -37q82 -12 165 -38t148 -56q59 -29 109.5 -70t87.5 -95.5t57.5 -123t20.5 -154.5q0 -96 -36 -180t-100.5 -145.5t-154.5 -97.5t-201 -36q-109 0 -184.5 13.5t-126.5 31 t-80 35t-41 25.5q-10 8 -8 42z" />
<glyph unicode="6" horiz-adv-x="1255" d="M145 389v619q0 137 32 234t98.5 159.5t169 91.5t241.5 29q35 0 84 -6.5t97 -15.5t89 -19.5t60 -18.5q14 -6 15 -41t-7 -73.5t-22.5 -67.5t-28.5 -25q-12 4 -40 14.5t-67 22t-86 19.5t-94 8q-98 0 -156.5 -23.5t-89 -65.5t-39 -98.5t-8.5 -121.5v-60q0 -23 8.5 -30t20.5 4 q53 35 116.5 60.5t149.5 25.5q100 0 185 -29t147.5 -90.5t97.5 -157.5t35 -231q0 -123 -25.5 -220.5t-83 -166t-151.5 -105.5t-229 -37q-106 0 -200.5 25t-165.5 75t-112 129t-41 187zM393 438q0 -137 68.5 -199.5t197.5 -62.5q119 0 182.5 72t63.5 254q0 86 -16.5 145.5 t-46 95t-69.5 51t-87 15.5q-100 0 -160.5 -25.5t-103.5 -62.5q-29 -27 -29 -53v-230z" />
<glyph unicode="7" horiz-adv-x="1150" d="M57 1333v117q0 27 7.5 38t35.5 11h865q47 0 59 -18.5t2 -53.5l-455 -1374q-8 -27 -18 -40t-31 -13h-157q-33 0 -45.5 8t-0.5 41l400 1194q12 47 -47 47h-576q-25 0 -32 16.5t-7 26.5z" />
<glyph unicode="8" horiz-adv-x="1277" d="M127 371q0 74 20.5 136t53 110.5t71.5 81t74 44.5q-35 16 -69.5 48t-62.5 76t-46 99.5t-18 120.5q0 92 33.5 171t95 137.5t149.5 92.5t199 34q129 0 224 -33t158.5 -91.5t95.5 -137t32 -170.5q0 -68 -22.5 -126.5t-56.5 -103.5t-74 -74.5t-75 -42.5q115 -41 183.5 -141 t68.5 -235q0 -96 -39 -170t-107.5 -123t-162.5 -75t-203 -26q-262 0 -392 105.5t-130 292.5zM367 408q0 -117 76.5 -176.5t205.5 -59.5q127 0 198 59.5t71 176.5q0 55 -18.5 102t-54.5 83t-89.5 56.5t-120.5 20.5q-72 0 -123 -21.5t-83 -57.5t-47 -84t-15 -99zM385 1057 q0 -98 69.5 -156.5t178.5 -58.5q125 0 195.5 59.5t70.5 153.5q0 139 -72.5 204.5t-191.5 65.5q-115 0 -182.5 -66.5t-67.5 -201.5z" />
<glyph unicode="9" horiz-adv-x="1255" d="M104 993q0 123 26 220.5t83 166t151.5 105.5t229.5 37q106 0 200.5 -24.5t165 -75t111.5 -129.5t41 -187v-619q0 -274 -131 -394t-410 -120q-35 0 -94 6.5t-118.5 15.5t-109.5 19.5t-69 18.5q-16 6 -16 41t8 73.5t22.5 67.5t28.5 25q12 -4 50 -14.5t88.5 -21.5 t106.5 -19.5t103 -8.5q98 0 156.5 23.5t89.5 64.5t39 98.5t8 122.5v60q0 47 -28 26q-53 -35 -117 -60.5t-150 -25.5q-100 0 -185 29t-147.5 90.5t-97.5 157.5t-35 231zM352 993q0 -86 16.5 -145.5t46 -95t69.5 -51t87 -15.5q100 0 161 25.5t104 62.5q29 27 28 53v230 q0 137 -68.5 199.5t-197.5 62.5q-119 0 -182.5 -71.5t-63.5 -254.5z" />
<glyph unicode=":" horiz-adv-x="501" d="M115 66v110q0 20 10 37.5t31 17.5h170q45 0 53 -12t8 -35v-110q0 -27 -5 -50.5t-44 -23.5h-156q-41 0 -54 19.5t-13 46.5zM121 920v112q0 35 9 52.5t40 17.5h156q59 0 59 -60v-104q0 -31 -10 -46t-41 -15h-154q-35 0 -47 10t-12 33z" />
<glyph unicode=";" horiz-adv-x="501" d="M53 -156q16 37 31.5 81t28 89t20.5 89t10 79q2 25 9.5 37t29.5 12h156q35 0 42 -11t3 -34q-27 -123 -98.5 -222t-161.5 -161q-14 -10 -28.5 -9t-25 9.5t-15.5 19.5t-1 21zM119 926v112q0 23 8 43.5t37 20.5h172q39 0 47 -16.5t8 -41.5v-108q0 -23 -8 -44.5t-37 -21.5 h-162q-43 0 -54 15.5t-11 40.5z" />
<glyph unicode="&#x3c;" horiz-adv-x="1077" d="M154 459v106q0 35 13 45.5t48 24.5l647 246q41 16 56.5 14t15.5 -31v-100q0 -33 -17.5 -44t-58.5 -26l-496 -176l496 -174q41 -14 58.5 -25.5t17.5 -44.5v-100q0 -29 -15.5 -31t-56.5 15l-639 241q-35 12 -52 23.5t-17 36.5z" />
<glyph unicode="=" horiz-adv-x="1077" d="M125 295v80q0 35 14.5 42t53.5 7h714q35 0 47.5 -6t12.5 -41v-72q0 -35 -16.5 -40t-53.5 -5h-709q-37 0 -50 7t-13 28zM129 633v74q0 35 16.5 39t53.5 4h708q37 0 50.5 -7.5t13.5 -27.5v-80q0 -35 -14.5 -42t-53.5 -7h-715q-35 0 -47 6t-12 41z" />
<glyph unicode="&#x3e;" horiz-adv-x="1077" d="M170 174v100q0 33 17.5 44.5t58.5 25.5l497 174l-497 176q-41 14 -58.5 25.5t-17.5 44.5v100q0 29 16.5 31t55.5 -14l647 -246q35 -14 48 -24.5t13 -45.5v-106q0 -25 -16 -36t-51 -24l-641 -241q-39 -16 -55.5 -14.5t-16.5 30.5z" />
<glyph unicode="?" horiz-adv-x="909" d="M95 1373q-3 30 14 42q16 12 45.5 29.5t70.5 35t92.5 30t110.5 12.5q182 0 287.5 -89t105.5 -243q0 -109 -47 -188.5t-104.5 -146.5t-104.5 -125t-47 -120v-108q0 -51 -45 -51h-133q-27 0 -37 10t-8 39q-2 29 -2 57q0 25 2 52.5t8 49.5q16 66 64.5 122.5t98.5 111.5 t89 114.5t39 131.5q0 205 -195 204q-31 0 -65.5 -9t-66 -22.5t-58.5 -29.5t-45 -31q-12 -8 -27.5 12.5t-27 50t-14.5 59.5zM270 66v102q0 23 10.5 39t32.5 16h174q35 0 46.5 -11t11.5 -34v-104q0 -27 -5 -50.5t-44 -23.5h-158q-41 0 -54.5 19.5t-13.5 46.5z" />
<glyph unicode="@" horiz-adv-x="1628" d="M86 682q0 160 55.5 301t153.5 245.5t233.5 165t294.5 60.5q160 0 295 -56.5t231.5 -157.5t150.5 -243.5t54 -314.5q0 -111 -23.5 -191.5t-66.5 -134t-101 -79t-128 -25.5q-86 0 -149.5 36t-88.5 101q-33 -59 -102.5 -102t-159.5 -43q-57 0 -108.5 23.5t-89 75.5t-60 135 t-22.5 200q0 207 70.5 327.5t205.5 120.5q100 0 158.5 -35.5t91.5 -95.5v72q0 39 29 39h100q33 0 39 -11.5t6 -35.5v-561q0 -47 28.5 -89t88.5 -42q68 0 109.5 74.5t41.5 242.5q0 141 -43 261t-122.5 207t-191.5 135t-247 48q-133 0 -241.5 -49t-185.5 -137t-119 -207 t-42 -258q0 -154 43 -275.5t121 -205.5t187.5 -129t242.5 -45q63 0 125 9t116 23.5t96 31t67 28.5q12 6 24.5 -8.5t20.5 -36t8 -43t-14 -27.5q-76 -37 -197 -66.5t-248 -29.5q-176 0 -313 57.5t-231.5 159.5t-143.5 243.5t-49 311.5zM643 616q0 -104 37 -173.5t123 -69.5 q41 0 71.5 18.5t52 45t33 53t11.5 42.5v263q0 27 -9.5 61.5t-29 66t-52 53t-81.5 21.5q-82 0 -119 -64.5t-37 -187.5v-129z" />
<glyph unicode="A" horiz-adv-x="1308" d="M73 10q-5 10 9 58l416 1366q10 35 25.5 50t49.5 15h168q35 0 49.5 -15.5t26.5 -49.5l416 -1366q16 -49 1 -58.5t-44 -9.5h-162q-29 0 -34 10t-15 43l-88 287h-510l-86 -287q-10 -33 -18.5 -43t-32.5 -10h-148q-18 0 -23 10zM436 522h400l-199 684z" />
<glyph unicode="B" horiz-adv-x="1290" d="M164 53v1374q0 35 5 53.5t36 18.5h399q131 0 233.5 -20.5t172 -65.5t105.5 -116.5t36 -176.5q0 -141 -65.5 -232t-170.5 -126q53 -16 100.5 -44t83.5 -71t56.5 -105.5t20.5 -148.5q0 -184 -120 -288.5t-390 -104.5h-459q-29 0 -36 12.5t-7 40.5zM399 895q0 -23 8.5 -31 t32.5 -8h166q162 0 231.5 56.5t69.5 177.5q0 133 -78.5 185t-230.5 52h-162q-23 -2 -30 -13t-7 -24v-395zM403 211q0 -12 7.5 -24.5t29.5 -12.5h162q164 0 247 49.5t83 186.5q0 129 -85 192.5t-237 63.5h-166q-25 0 -33 -8.5t-8 -30.5v-416z" />
<glyph unicode="C" horiz-adv-x="1228" d="M152 428v576q0 106 26.5 200t95 165t187.5 112t303 41q88 0 150.5 -10.5t105.5 -23.5t66.5 -28.5t35.5 -23.5q8 -6 1 -34t-19 -58.5t-26.5 -54t-22.5 -21.5q-18 8 -42 18t-55.5 19.5t-74.5 16.5t-99 7q-207 0 -295 -86t-88 -260v-532q0 -84 30 -139.5t77 -89.5t107.5 -48 t121.5 -14q70 0 122 9t92 21.5t68 24.5t46 18q10 2 21.5 -23.5t19.5 -59t10 -64.5t-4 -37q-41 -27 -147.5 -51.5t-245.5 -24.5q-274 0 -420.5 121t-146.5 334z" />
<glyph unicode="D" horiz-adv-x="1359" d="M164 72v1360q0 31 7 49t36 18h416q115 0 220 -20.5t187 -73.5t130 -147.5t48 -241.5v-549q0 -156 -53 -248t-132 -141t-169 -63.5t-164 -14.5h-475q-20 0 -35.5 15.5t-15.5 56.5zM408 244q0 -23 9 -35t44 -12h166q59 0 118.5 9t107.5 41t78 91t30 158v503 q0 166 -91.5 236t-244.5 70h-170q-33 0 -40 -10.5t-7 -32.5v-1018z" />
<glyph unicode="E" horiz-adv-x="1128" d="M164 59v1373q0 29 5 48t34 19h741q37 0 46 -5t9 -28v-120q0 -25 -25.5 -29t-68.5 -4h-454q-35 0 -44.5 -10.5t-9.5 -22.5v-354q0 -29 10.5 -38t34.5 -9h406q43 0 54 -8.5t7 -28.5l-14 -115q-4 -33 -36 -36t-60 -3h-340q-33 0 -45.5 -10t-12.5 -37v-401q0 -35 16.5 -40 t43.5 -5h495q41 0 58.5 -7.5t17.5 -31.5v-119q0 -23 -13 -30t-30 -7h-778q-20 0 -33.5 12.5t-13.5 46.5z" />
<glyph unicode="F" horiz-adv-x="1052" d="M164 59v1373q0 29 5 48t34 19h717q37 0 46 -8t9 -25v-112q0 -29 -16.5 -36t-53.5 -7h-452q-35 0 -44.5 -10.5t-9.5 -22.5v-401q0 -29 10.5 -38.5t34.5 -9.5h394q43 0 54 -9t7 -27l-8 -117q-6 -31 -36 -34t-60 -3h-344q-29 0 -38.5 -11.5t-9.5 -37.5v-553q0 -23 -8 -30 t-24 -7h-164q-20 0 -31.5 12.5t-11.5 46.5z" />
<glyph unicode="G" horiz-adv-x="1382" d="M152 479v469q0 117 21.5 220.5t87 182.5t184 125t315.5 46q100 0 175 -14.5t127 -33t82 -38t40 -29.5q8 -8 0 -38t-23.5 -60.5t-33 -52t-27.5 -15.5q-18 14 -46 29.5t-67 29t-91 21.5t-122 8q-96 0 -164.5 -17.5t-114.5 -62.5t-67.5 -119.5t-21.5 -189.5v-438 q0 -186 71.5 -267t245.5 -81q70 0 121 12t86 42t52 80t17 126v192q0 16 -5 29.5t-33 13.5l-140 2q-23 0 -32 5.5t-9 29.5v102q0 16 3 26.5t26 10.5h336q61 0 76.5 -15t15.5 -69v-288q0 -84 -15.5 -169t-67.5 -155t-153.5 -113t-273.5 -43q-170 0 -281.5 39t-177 107.5 t-91 161t-25.5 198.5z" />
<glyph unicode="H" horiz-adv-x="1427" d="M164 76v1370q0 29 8 41t37 12h147q35 0 45.5 -13t10.5 -54v-514q0 -25 11 -32t36 -7h522q35 0 35 34v531q0 29 12 42t45 13h144q35 0 41 -12t6 -39v-1382q0 -41 -7.5 -53.5t-37.5 -12.5h-154q-25 0 -37 12.5t-12 46.5v584q0 29 -7.5 35t-31.5 6h-533q-18 0 -25 -5t-7 -30 v-583q0 -41 -12.5 -53.5t-49.5 -12.5h-143q-27 0 -35 17.5t-8 58.5z" />
<glyph unicode="I" horiz-adv-x="575" d="M164 57v1397q0 29 10 37t45 8h152q29 0 35 -11t6 -46v-1395q0 -27 -7.5 -37t-35.5 -10h-158q-29 0 -38 11.5t-9 45.5z" />
<glyph unicode="J" horiz-adv-x="712" d="M43 75q8 15 35 25q86 41 131 70q31 20 49 43t27.5 52.5t12.5 68.5t3 88v1024q0 29 7 41t32 12h152q35 0 46 -13t11 -54v-1100q0 -145 -49 -227t-160 -140q-55 -31 -111.5 -52.5t-87.5 -33.5q-10 -4 -18 -4q-23 0 -33 29l-45 127q-10 29 -2 44z" />
<glyph unicode="K" horiz-adv-x="1265" d="M164 68v1366q0 41 12 53t43 12h150q31 0 37 -11t6 -46v-551l493 571q23 25 32 31t32 6h161q41 0 54.5 -8t-15.5 -37l-542 -627l583 -778q20 -29 12 -39t-38 -10h-185q-25 0 -35 9t-30 38l-467 623l-55 -64v-553q0 -29 -6.5 -41t-34.5 -12h-152q-35 0 -45 13.5t-10 54.5z " />
<glyph unicode="L" horiz-adv-x="1048" d="M164 72v1374q0 29 8 41t37 12h147q35 0 45.5 -13t10.5 -54v-1207q0 -25 11 -32t36 -7h506q31 0 35 -9t4 -32v-106q0 -29 -10.5 -34t-39.5 -5h-747q-29 0 -36 15.5t-7 56.5z" />
<glyph unicode="M" horiz-adv-x="1636" d="M164 68v1366q0 41 12 53t39 12h156q23 0 37 -6t30 -33l369 -612q14 -23 29 -2l362 610q25 43 66 43h166q35 0 39 -17.5t4 -51.5v-1375q0 -29 -8.5 -42t-39.5 -13h-137q-41 0 -53 13.5t-12 54.5v1042q0 29 -6.5 29t-22.5 -27l-305 -532q-20 -35 -28.5 -45.5t-24.5 -10.5 h-45q-23 0 -30 10.5t-28 47.5l-289 520q-16 26 -24 26q-9 0 -8 -30v-1045q0 -27 -7.5 -40t-42.5 -13h-133q-27 0 -46 9t-19 59z" />
<glyph unicode="N" horiz-adv-x="1472" d="M164 61v1373q0 4 1 14t4 21.5t10 20.5t22 9h143q25 0 39 -2t21.5 -7t12.5 -13.5t15 -20.5l598 -1016q23 -39 33 -33.5t10 64.5v963q0 23 6 45t27 20h158q27 0 34 -16.5t7 -50.5v-1360q0 -41 -8.5 -59.5t-36.5 -16.5l-148 2q-29 0 -43 11t-31 40l-596 1000q-25 41 -35 44 t-10 -46v-975q0 -41 -8 -56.5t-37 -15.5h-133q-16 0 -35.5 6t-19.5 55z" />
<glyph unicode="O" horiz-adv-x="1415" d="M152 403v605q0 274 136 394t419 120q113 0 214 -24.5t178 -83t121 -156t44 -244.5v-547q0 -121 -29 -204t-75 -138t-105.5 -86t-121 -45t-119.5 -17.5t-101 -3.5q-76 0 -173.5 12.5t-183.5 57.5t-145 130t-59 230zM393 457q0 -78 29 -132.5t75 -87t102 -47t114 -14.5 q61 0 116.5 12.5t97.5 47t65.5 97t23.5 163.5v503q0 168 -76 245t-223 77q-90 0 -152.5 -21.5t-100.5 -62.5t-54.5 -103.5t-16.5 -142.5v-534z" />
<glyph unicode="P" horiz-adv-x="1298" d="M164 72v1374q0 29 8 41t41 12h438q561 0 561 -475q0 -238 -132 -362.5t-400 -124.5h-234q-23 0 -27.5 -7.5t-4.5 -33.5v-430q0 -41 -10.5 -53.5t-38.5 -12.5h-160q-35 0 -38 18.5t-3 53.5zM414 770q0 -27 8 -33t33 -6h247q111 0 185 70.5t74 232.5q0 74 -26 127t-69 87 t-101 49.5t-124 15.5h-190q-23 -2 -30 -13.5t-7 -23.5v-506z" />
<glyph unicode="Q" horiz-adv-x="1415" d="M152 403v605q0 274 136 394t419 120q113 0 214 -24.5t178 -83t121 -156t44 -244.5v-547q0 -88 -15.5 -154.5t-43 -117t-63.5 -84t-75 -56.5q12 -16 32.5 -36.5t48.5 -43t59.5 -43t66.5 -34.5q27 -10 33 -25.5t-4 -46.5l-41 -121q-11 -29 -36 -29q-10 0 -22 5 q-27 8 -69.5 33.5t-94 64.5t-104.5 90t-98 111q-72 -6 -125 -7q-76 0 -173.5 12.5t-183.5 57.5t-145 130t-59 230zM393 457q0 -78 29 -132.5t75 -87t102 -47t114 -14.5q61 0 116.5 12.5t97.5 47t65.5 97t23.5 163.5v503q0 168 -76 245t-223 77q-90 0 -152.5 -21.5 t-100.5 -62.5t-54.5 -103.5t-16.5 -142.5v-534z" />
<glyph unicode="R" horiz-adv-x="1351" d="M164 72v1374q0 29 8 41t41 12h438q276 0 418.5 -113.5t142.5 -322.5q0 -80 -26.5 -145.5t-67.5 -114.5t-89 -80t-91 -41q-23 -6 -25 -9t9 -22l282 -579q20 -41 16.5 -56.5t-34.5 -15.5h-182q-29 0 -38.5 13.5t-21.5 41.5l-262 549q-10 20 -35 21h-211q-16 0 -19 -6.5 t-3 -26.5v-526q0 -41 -10.5 -53.5t-38.5 -12.5h-160q-35 0 -38 18.5t-3 53.5zM414 858q0 -29 8 -34t33 -5h252q111 0 183.5 59.5t72.5 184.5q0 70 -26 118t-70 76.5t-102 42t-124 13.5h-190q-23 -2 -30 -13.5t-7 -23.5v-418z" />
<glyph unicode="S" horiz-adv-x="1241" d="M106 99q0 31 6 65q6 37 16.5 64.5t23.5 25.5q20 -8 52 -20.5t76 -24.5t102 -21.5t136 -9.5q70 0 132.5 11.5t107.5 36t71.5 64.5t26.5 99q0 49 -14.5 88t-48 73t-89 63.5t-137.5 62.5t-156.5 71.5t-132 91t-91 124t-33.5 172.5q0 80 31.5 150.5t97 122.5t165 83t232.5 31 q94 0 155.5 -5.5t101.5 -12.5t62.5 -14t38.5 -13t16 -38q0 -2 1 -3q1 -31 -9 -65q-10 -36 -25 -63.5t-32 -23.5q-45 14 -126 29.5t-163 15.5q-166 0 -229 -52t-63 -142q0 -47 16 -82t52 -65t89 -56.5t127 -54.5q207 -84 316.5 -197t109.5 -281q0 -125 -50 -207.5t-130 -132 t-181.5 -69t-205.5 -19.5q-180 0 -287.5 28t-148.5 56q-9 7 -9 44z" />
<glyph unicode="T" horiz-adv-x="1134" d="M25 1339v127q0 23 12 28t45 5h969q31 0 45 -4t14 -25v-131q0 -14 -7 -22t-36 -8h-332q-31 0 -39 -7.5t-8 -31.5v-1202q0 -41 -8 -54.5t-43 -13.5h-141q-35 0 -44.5 11.5t-9.5 56.5v1202q0 25 -8 32t-39 7h-327q-29 0 -36 7t-7 23z" />
<glyph unicode="U" horiz-adv-x="1368" d="M160 430v1016q0 29 7 40t28 13h155q27 0 39 -13t12 -54v-924q0 -160 78 -245t201 -85q86 0 140 23.5t86 66.5t44.5 104.5t12.5 139.5v934q0 29 7 40t27 13h160q27 0 39 -13t12 -54v-967q0 -162 -51 -258t-130 -148.5t-172 -69t-175 -16.5q-86 0 -178 21.5t-168 74 t-125 140.5t-49 221z" />
<glyph unicode="V" horiz-adv-x="1304" d="M62.5 1470q0.5 13 7 20t17.5 8t24 1h159q29 0 36 -10t18 -43l344 -1153l344 1153q10 33 16 43t29 10h129q29 0 42 -8t3 -35l-428 -1411q-8 -25 -18.5 -35t-41.5 -10h-188q-33 0 -44 12.5t-19 36.5l-422 1383q-8 25 -7.5 38z" />
<glyph unicode="W" horiz-adv-x="1931" d="M69 1470q1 13 7 20t17 8t24 1h159q29 0 36 -10t18 -43l344 -1153l190 639l-151 500q-16 49 -1 58t40 9h161q29 0 35 -10t17 -43l344 -1155l346 1155q10 33 15 43t28 10h129q29 0 42 -8t5 -35l-430 -1413q-8 -25 -18.5 -34t-41.5 -9h-180q-33 0 -44 11.5t-19 37.5 l-176 576l-177 -580q-8 -27 -18 -36t-41 -9h-168q-33 0 -44 12.5t-19 36.5l-422 1383q-8 25 -7 38z" />
<glyph unicode="X" horiz-adv-x="1392" d="M87 13.5q-3 13.5 24 52.5l221 340l221 339l-449 693q-18 31 -15 46t36 15h174q31 0 50.5 -13t45.5 -54l318 -494l315 494q27 41 42 54t54 13h127q33 0 36 -15.5t-17 -45.5l-432 -670l456 -702q25 -35 19 -50.5t-39 -15.5h-182q-29 0 -47.5 16.5t-40.5 49.5l-324 509 l-14 -23q-15 -22 -38.5 -57.5t-52 -81.5t-59.5 -94l-164 -253q-29 -45 -41 -55.5t-35 -10.5h-145q-41 0 -44 13.5z" />
<glyph unicode="Y" horiz-adv-x="1288" d="M60 1493q10 6 34 6h178q23 0 32 -8t26 -35l338 -629q25 45 51 99q23 45 52.5 101t62.5 116l167 315q14 23 22.5 32t39.5 9h127q33 0 40 -9t-13 -44q-125 -233 -224 -416q-43 -78 -83 -151.5t-71.5 -132t-50.5 -94.5l-18 -36v-571q0 -27 -10 -36t-37 -9h-162q-23 0 -31 9 t-8 32v577l-456 840q-16 29 -6 35z" />
<glyph unicode="Z" horiz-adv-x="1226" d="M88 25v61q0 18 12.5 41t24.5 45l680 1135h-617q-43 0 -62.5 10t-14.5 39l6 106q2 18 8 27.5t43 9.5h913q16 0 31.5 -5t15.5 -19v-62q0 -16 -17 -48t-26 -46l-673 -1126h657q43 0 58.5 -6.5t15.5 -28.5v-119q0 -23 -9.5 -31t-46.5 -8h-964q-35 0 -35 25z" />
<glyph unicode="[" horiz-adv-x="698" d="M154 -156v1672q0 29 8 36t43 7h356q33 0 41 -8.5t8 -26.5v-101q0 -37 -49 -37h-141q-25 0 -33 -8t-8 -30v-1340q0 -23 9 -30t32 -7h151q25 0 32 -11t7 -30v-100q0 -23 -11 -29t-36 -6h-354q-33 0 -44 10.5t-11 38.5z" />
<glyph unicode="\" horiz-adv-x="839" d="M22 1500q1 13 27 13h135q39 0 51.5 -11t26.5 -46l535 -1390q16 -41 9 -53.5t-40 -12.5h-131q-25 0 -37 10t-27 47l-536 1395q-14 35 -13 48z" />
<glyph unicode="]" horiz-adv-x="698" d="M86 -70q0 18 7 29.5t32 11.5h151q23 0 32 7.5t9 29.5v1340q0 23 -8 30.5t-33 7.5h-141q-49 0 -49 37v101q0 18 8 26.5t41 8.5h357q33 0 42 -7.5t9 -35.5v-1672q0 -29 -11.5 -39t-44.5 -10h-354q-27 0 -37 6t-10 29v100z" />
<glyph unicode="^" horiz-adv-x="1077" d="M127 738.5q-2 15.5 14 56.5l283 641q14 31 25.5 49t33.5 18h107q31 0 42 -14t27 -47l287 -647q16 -41 14 -56.5t-32 -15.5h-99q-35 0 -45 19.5t-26 56.5l-215 501l-215 -501q-14 -37 -25.5 -56.5t-44.5 -19.5h-98q-31 0 -33 15.5z" />
<glyph unicode="_" horiz-adv-x="913" d="M20 -94q0 37 13.5 43t48.5 6h743q41 0 59.5 -6t18.5 -35v-86q0 -35 -14.5 -43t-61.5 -8h-751q-31 0 -43.5 8t-12.5 33v88z" />
<glyph unicode="`" horiz-adv-x="970" d="M245.5 1567q2.5 14 43.5 14h143q27 0 37 -10t27 -33l186 -262q39 -53 -10 -53h-80q-20 0 -35.5 10t-30.5 27l-254 264q-29 29 -26.5 43z" />
<glyph unicode="a" horiz-adv-x="1165" d="M104 545q0 135 24 243.5t70 184.5t113.5 116.5t155.5 40.5q133 0 212 -46t124 -123v90q0 51 37 51h131q43 0 51 -14.5t8 -47.5v-960q0 -41 -7 -60.5t-42 -19.5h-129q-23 0 -36 9t-13 50v86q-16 -33 -47 -63.5t-75 -53t-97.5 -37t-112.5 -14.5q-76 0 -142.5 32 t-116.5 99.5t-79 175t-29 261.5zM346 463q0 -152 54.5 -241t164.5 -89q51 0 93 24.5t70 57.5t43 67.5t15 57.5v375q0 33 -12 78t-39.5 86t-69.5 68.5t-104 27.5q-104 0 -159.5 -79t-55.5 -261v-172z" />
<glyph unicode="b" horiz-adv-x="1169" d="M139 80v1380q0 33 8.5 47.5t51.5 14.5h131q23 0 30 -17.5t7 -50.5v-483q51 82 132 120.5t203 38.5q88 0 156 -40.5t114 -116.5t69.5 -184.5t23.5 -243.5q0 -154 -27.5 -261.5t-76 -175t-114 -99.5t-140.5 -32q-119 0 -202 33t-138 107v-60q0 -41 -13.5 -49t-36.5 -8h-129 q-35 0 -42 19.5t-7 60.5zM383 319q0 -20 14.5 -51.5t43 -60.5t68.5 -50.5t93 -21.5q111 0 166 88t55 240v172q0 154 -55 247t-160 93q-61 0 -103 -24.5t-69.5 -61.5t-40 -81t-12.5 -83v-406z" />
<glyph unicode="c" horiz-adv-x="1050" d="M102 545q0 160 37 271.5t104.5 181t162 101t210.5 31.5q131 0 223.5 -35.5t151.5 -117.5q10 -16 -11.5 -42t-53 -47.5t-62 -32.5t-39.5 3q-31 49 -81 82t-130 33q-115 0 -188.5 -78t-73.5 -246v-200q0 -84 20.5 -143.5t56.5 -97.5t83 -55.5t102 -17.5q70 0 122 37t87 92 q8 16 38 12t61.5 -18t54 -34t16.5 -34q-53 -100 -149 -156.5t-238 -56.5q-119 0 -213 28t-158.5 93.5t-98.5 174t-34 272.5z" />
<glyph unicode="d" horiz-adv-x="1165" d="M104 545q0 135 24 243.5t70 184.5t113.5 116.5t155.5 40.5q119 0 197.5 -36.5t138.5 -122.5v483q0 68 37 68h131q43 0 51 -14.5t8 -47.5v-1380q0 -41 -7 -60.5t-42 -19.5h-129q-23 0 -36 8t-13 51v58q-57 -72 -139 -106t-201 -34q-76 0 -141.5 32t-113.5 99.5t-76 175 t-28 261.5zM346 463q0 -152 55.5 -240t165.5 -88q51 0 92 21.5t70 50.5t43 60.5t14 51.5v406q0 39 -12 83t-39.5 81t-69.5 61.5t-104 24.5q-104 0 -159.5 -93.5t-55.5 -246.5v-172z" />
<glyph unicode="e" horiz-adv-x="1136" d="M104 541q0 297 120 443t356 146q215 0 332.5 -112.5t117.5 -319.5v-127q0 -45 -13 -66.5t-71 -21.5h-608q0 -178 82 -255.5t227 -77.5q127 0 201 17t102 28q29 10 43.5 4t14.5 -23v-102q0 -29 -13.5 -39t-54.5 -23q-10 -4 -42 -10t-75 -11t-92 -9.5t-94 -4.5 q-133 0 -232.5 31t-166 98.5t-100.5 175t-34 259.5zM344 680q0 -23 2 -32t25 -9h413q16 0 19.5 8t3.5 31q-4 147 -54.5 226t-177.5 79q-61 0 -105 -24.5t-71.5 -65.5t-41 -96.5t-13.5 -116.5z" />
<glyph unicode="f" horiz-adv-x="700" d="M84 956v70q0 43 33 43h102q-12 25 -27 67q-12 37 -12 101v18q0 49 14.5 97.5t46 86.5t83 60.5t125.5 22.5q66 0 110.5 -8.5t69.5 -18.5q8 -4 7 -28.5t-6 -53.5t-13.5 -51.5t-14.5 -22.5q-33 8 -47 11.5t-49 3.5q-41 0 -72 -31t-31 -94q0 -53 17.5 -92t40.5 -66h137 q33 0 40 -10t7 -31v-72q0 -18 -8 -31.5t-39 -13.5h-133v-845q0 -68 -47 -68h-125q-23 0 -40 12.5t-17 40.5v860h-107q-29 0 -37 9.5t-8 33.5z" />
<glyph unicode="g" horiz-adv-x="1165" d="M104 555q0 131 24 236.5t69 181.5t110.5 116.5t151.5 40.5q100 0 191 -31.5t153 -113.5q0 76 9 96.5t40 20.5h125q41 0 46 -19.5t5 -54.5v-872q0 -164 -25.5 -276.5t-79 -183.5t-133 -102.5t-186.5 -31.5q-72 0 -124 3t-90 8t-63.5 10t-43.5 9q-29 8 -44.5 16.5 t-15.5 37.5v104q0 20 15 24q5 2 11 2q18 0 54 -9q55 -14 125 -28.5t152 -14.5q113 0 167 75.5t58 253.5q0 10 -1 37t-1 37q-55 -76 -135 -113t-197 -37q-80 0 -146.5 31t-115.5 100.5t-77 179t-28 267.5zM346 457q0 -150 54.5 -236t164.5 -86q53 0 94 21.5t70 51.5t43 62.5 t14 55.5v393q0 39 -12 84t-38.5 83t-69.5 63.5t-103 25.5q-104 0 -160.5 -96.5t-56.5 -249.5v-172z" />
<glyph unicode="h" horiz-adv-x="1150" d="M135 72v1364q0 31 9.5 47t39.5 16h142q23 0 31 -11t8 -52v-463q29 37 59.5 64.5t69 48t86 30.5t110.5 10q66 0 124 -18t103.5 -59t71 -109t25.5 -166v-680q0 -51 -6.5 -72.5t-34.5 -21.5h-146q-45 0 -45 74v651q0 41 -10 78t-32.5 65.5t-59.5 45t-90 16.5 q-55 0 -98 -22.5t-72 -57.5t-43.5 -77t-14.5 -79v-622q0 -41 -7 -56.5t-29 -15.5h-142q-31 0 -40 15.5t-9 56.5z" />
<glyph unicode="i" horiz-adv-x="497" d="M135 72v968q0 31 9.5 46.5t39.5 15.5h129q37 0 43 -13.5t6 -48.5v-968q0 -41 -6 -56.5t-34 -15.5h-144q-29 0 -36 15.5t-7 56.5zM135 1366v74q0 35 10.5 47t44.5 12h129q35 0 39 -17.5t4 -51.5v-70q0 -37 -8 -49.5t-32 -12.5h-136q-31 0 -41 12.5t-10 55.5z" />
<glyph unicode="j" horiz-adv-x="528" d="M-43 -372.5q0 26.5 5 55t13.5 52t18.5 23.5q20 -4 44.5 -8t53.5 -4q41 0 53.5 37t12.5 78v1171q0 35 10 52.5t45 17.5h129q29 0 40 -15.5t11 -52.5v-1206q0 -53 -13 -101.5t-42 -83t-75 -55t-111 -20.5q-61 0 -110.5 10t-76.5 21q-8 2 -8 28.5zM162 1366v70q0 35 10 49 t45 14h123q37 0 40 -13t3 -48v-78q0 -37 -6 -49.5t-35 -12.5h-129q-31 0 -41 10.5t-10 57.5z" />
<glyph unicode="k" horiz-adv-x="1013" d="M135 76v1384q0 31 9.5 46.5t39.5 15.5h127q37 0 43 -13.5t6 -48.5v-794l332 389q12 18 26.5 32.5t33.5 14.5h182q37 0 36 -13.5t-24 -41.5l-403 -476l436 -528q20 -27 13 -36t-36 -9h-178q-20 0 -36.5 15.5t-39.5 41.5l-342 418v-395q0 -41 -6 -59.5t-35 -18.5h-126 q-35 0 -46.5 17.5t-11.5 58.5z" />
<glyph unicode="l" horiz-adv-x="497" d="M135 68v1398q0 29 9.5 42.5t39.5 13.5h129q37 0 43 -13.5t6 -48.5v-1388q0 -41 -6 -56.5t-34 -15.5h-136q-33 0 -42 12.5t-9 55.5z" />
<glyph unicode="m" horiz-adv-x="1720" d="M135 76v962q0 31 9.5 47.5t39.5 16.5h131q27 0 38.5 -21.5t11.5 -93.5q53 72 119.5 105.5t174.5 33.5q98 0 168 -41t115 -143q59 86 136 135t190 49q63 0 120.5 -18t100.5 -59t68.5 -109t25.5 -166v-680q0 -51 -8 -72.5t-37 -21.5h-135q-35 0 -43 17.5t-8 56.5v651 q0 41 -7.5 78t-26 65.5t-51 45t-85.5 16.5q-49 0 -85 -17.5t-60.5 -47t-39 -66.5t-22.5 -74v-631q0 -51 -9.5 -72.5t-37.5 -21.5h-140q-45 0 -45 74v651q0 41 -7 78t-25.5 65.5t-52 45t-87.5 16.5q-59 0 -99 -22.5t-64.5 -57.5t-35 -77t-10.5 -79v-616q0 -41 -6 -59.5 t-34 -18.5h-129q-35 0 -46.5 17.5t-11.5 58.5z" />
<glyph unicode="n" horiz-adv-x="1150" d="M135 76v962q0 31 9.5 47.5t39.5 16.5h131q27 0 38.5 -29t11.5 -100q53 72 130.5 112.5t194.5 40.5q66 0 124 -18t103.5 -59t71 -109t25.5 -166v-680q0 -51 -8.5 -72.5t-36.5 -21.5h-133q-53 0 -54 74v651q0 41 -10 78t-32.5 64.5t-59.5 44t-90 16.5q-59 0 -102.5 -22.5 t-71 -56.5t-41 -76t-13.5 -79v-616q0 -41 -6 -59.5t-34 -18.5h-129q-35 0 -46.5 17.5t-11.5 58.5z" />
<glyph unicode="o" horiz-adv-x="1198" d="M104 545q0 160 37 271.5t103.5 181t161 101t210.5 31.5q113 0 202 -31.5t150.5 -102t93.5 -181t32 -268.5q0 -279 -129 -424.5t-359 -145.5q-119 0 -212 28t-157.5 93.5t-98.5 174t-34 272.5zM348 449q0 -84 20.5 -143.5t56.5 -97.5t83 -55.5t102 -17.5q117 0 183.5 92 t66.5 246v186q0 68 -13 125.5t-43 99.5t-78 65.5t-118 23.5q-113 0 -186.5 -78t-73.5 -246v-200z" />
<glyph unicode="p" horiz-adv-x="1169" d="M139 -360v1388q0 35 6.5 54.5t47.5 19.5h124q23 0 36.5 -12.5t13.5 -45.5v-75q59 84 146 122.5t198 38.5q86 0 151.5 -40.5t110.5 -116.5t68.5 -181.5t23.5 -236.5q0 -158 -27.5 -267.5t-77 -179t-116 -100.5t-146.5 -31q-117 0 -196.5 34t-134.5 104v-475 q0 -37 -7.5 -52.5t-29.5 -15.5h-135q-37 0 -46.5 14.5t-9.5 53.5zM383 322q0 -20 15.5 -52t43 -62t68.5 -51.5t94 -21.5q111 0 165 86t54 236v172q0 154 -56 250t-161 96q-59 0 -102 -25.5t-69.5 -63.5t-39 -83t-12.5 -84v-397z" />
<glyph unicode="q" horiz-adv-x="1165" d="M104 555q0 131 24 236.5t69 181.5t110.5 116.5t151.5 40.5q109 0 192.5 -37.5t151.5 -123.5v75q0 29 8 43.5t37 14.5h129q41 0 47 -14.5t6 -49.5v-1411q0 -31 -9 -43t-46 -12h-135q-20 0 -28.5 8t-8.5 37v498q-57 -74 -141 -106t-191 -32q-80 0 -146.5 31t-115.5 100.5 t-77 179t-28 267.5zM346 457q0 -150 54.5 -236t164.5 -86q53 0 94 20.5t70 48t43 58.5t14 51v406q0 39 -12 84t-38.5 83t-69.5 63.5t-103 25.5q-104 0 -160.5 -96.5t-56.5 -249.5v-172z" />
<glyph unicode="r" horiz-adv-x="757" d="M135 76v962q0 31 9.5 47.5t39.5 16.5h131q20 0 35 -11.5t15 -41.5v-105q61 88 145 130t178 42q12 0 23.5 -3t9.5 -19l-6 -129q-6 -31 -31 -31q-41 0 -86 -10.5t-80 -32.5q-72 -41 -114 -94.5t-42 -102.5v-616q0 -41 -6 -59.5t-34 -18.5h-129q-35 0 -46.5 17.5t-11.5 58.5 z" />
<glyph unicode="s" horiz-adv-x="946" d="M94 73.5q-2 26.5 1 56.5t12.5 52.5t25.5 16.5q14 -6 37 -14.5t54.5 -16.5t76.5 -14.5t105 -6.5q100 0 154 33t54 111q0 63 -51 115.5t-155 105.5q-59 31 -112.5 61.5t-93.5 69.5t-64.5 87t-24.5 110q0 74 33.5 129t89 92t127 54.5t149.5 17.5q115 0 185.5 -12.5 t90.5 -22.5q8 -4 6.5 -29t-9 -53.5t-20.5 -50t-26 -19.5q-12 4 -36.5 9.5t-53 10.5t-60.5 9t-63 4q-90 0 -137 -34t-47 -99q0 -47 57.5 -89t137.5 -85q72 -39 130 -78t99 -84t62.5 -100t21.5 -127q0 -94 -36 -153.5t-92 -93.5t-126 -46.5t-139 -12.5q-152 0 -237 25t-116 41 q-8 4 -10 30.5z" />
<glyph unicode="t" horiz-adv-x="761" d="M80 961v77q0 25 8 33t37 8h98v205q0 29 16.5 38t41.5 13l110 21q33 6 44 -7.5t11 -43.5v-226h197q29 0 38 -12t9 -33v-78q0 -20 -8 -30.5t-41 -10.5h-188v-663q0 -51 23.5 -80t64.5 -29q31 0 51 2t51 11q8 2 15.5 -20.5t10.5 -51.5t2 -54.5t-7 -27.5q-25 -10 -80.5 -17.5 t-112.5 -7.5q-74 0 -123 23t-78.5 60.5t-42 86t-12.5 99.5v672h-102q-20 0 -26.5 11t-6.5 32z" />
<glyph unicode="u" horiz-adv-x="1150" d="M135 328v702q0 39 9.5 55.5t37.5 16.5h133q53 0 54 -74v-651q0 -41 10 -78t32.5 -64.5t58.5 -44t89 -16.5q57 0 100 22.5t72 56.5t43 76t14 79v616q0 41 6.5 59.5t34.5 18.5h129q35 0 45.5 -17.5t10.5 -58.5v-963q0 -31 -8.5 -47t-38.5 -16h-131q-27 0 -38.5 27.5 t-11.5 99.5q-68 -78 -143.5 -112.5t-183.5 -34.5q-61 0 -118.5 18t-104 60t-74 107.5t-27.5 162.5z" />
<glyph unicode="v" horiz-adv-x="1069" d="M43 1057q-10 25 1 35t40 10h137q23 0 36 -14.5t19 -34.5l271 -795l282 795q6 16 20.5 32.5t33.5 16.5h116q31 0 36 -11.5t-7 -41.5l-360 -988q-14 -41 -29.5 -51t-42.5 -10h-150q-31 0 -46 17.5t-25 39.5z" />
<glyph unicode="w" horiz-adv-x="1421" d="M37 1057q-10 27 2 36t39 9h135q23 0 35 -14.5t18 -34.5l209 -801l139 526l-77 279q-10 27 2 36t39 9h135q23 0 35 -14.5t20 -34.5l207 -801l217 801q6 16 20.5 32.5t32.5 16.5h113q33 0 37 -11.5t-6 -41.5l-293 -988q-16 -41 -30.5 -51t-43.5 -10h-127q-31 0 -47.5 17.5 t-24.5 39.5l-123 461l-135 -457q-16 -41 -30.5 -51t-42.5 -10h-105q-29 0 -45 17.5t-27 39.5z" />
<glyph unicode="x" horiz-adv-x="956" d="M46 1087.5q1 14.5 42 14.5h156q25 0 40 -15.5t33 -50.5l177 -305l180 305q20 35 35.5 50.5t40.5 15.5h110q43 0 43 -14.5t-18 -47.5l-287 -471l297 -497q23 -41 18.5 -56.5t-32.5 -15.5h-148q-35 0 -49 14.5t-39 55.5l-180 311l-184 -311q-27 -45 -41.5 -57.5 t-40.5 -12.5h-115q-31 0 -32 15.5t24 56.5l284 471l-297 497q-18 33 -17 47.5z" />
<glyph unicode="y" horiz-adv-x="1083" d="M47 1057q-10 27 1 36t40 9h145q23 0 35.5 -14.5t18.5 -34.5l264 -754l268 754q6 16 20.5 32.5t32.5 16.5h123q33 0 38 -11.5t-7 -41.5l-522 -1407q-12 -29 -27.5 -40.5t-40.5 -11.5h-108q-23 0 -32 11.5t1 36.5l129 362z" />
<glyph unicode="z" horiz-adv-x="970" d="M60 28q-1 4 -1 10q0 26 23 60l502 848h-453q-31 0 -40 5t-9 38v72q0 27 10 34t33 7h700q55 0 68.5 -15.5t-10.5 -56.5l-523 -874h492q29 0 41 -5.5t12 -39.5v-68q0 -29 -10 -36t-39 -7h-719q-72 0 -77 28z" />
<glyph unicode="{" horiz-adv-x="800" d="M82 647v121q0 20 29 25q43 6 79.5 22t64.5 42t43 59.5t11 74.5l-26 283q-12 129 50 207t208 78h96q23 0 30 -8.5t7 -24.5v-111q0 -29 -35 -29h-45q-47 0 -81 -28.5t-30 -91.5l31 -316q2 -47 -16.5 -88t-50 -72.5t-71.5 -52t-81 -26.5q41 -8 82 -32t72.5 -59.5t49 -81.5 t15.5 -96l-27 -327q-6 -78 22 -111t75 -33h61q16 0 22.5 -9t6.5 -19v-119q0 -29 -41 -29h-113q-115 0 -182.5 68.5t-54.5 218.5l26 328q2 39 -11 73.5t-40 62t-64.5 46t-82.5 24.5q-29 4 -29 31z" />
<glyph unicode="|" horiz-adv-x="536" d="M170 -332v1899q0 35 9 47t48 12h109q29 0 33 -13.5t4 -47.5v-1905q0 -37 -7.5 -47t-31.5 -10h-105q-35 0 -47 12t-12 53z" />
<glyph unicode="}" horiz-adv-x="800" d="M135 -57q0 10 5 19t22 9h63q47 0 74 33t20 111l-26 327q-4 49 15.5 95.5t51 82t71.5 59t81 32.5q-41 6 -81 26.5t-71.5 52t-51 72.5t-15.5 88l31 316q4 63 -29 91.5t-80 28.5h-47q-33 0 -33 29v111q0 16 6 24.5t29 8.5h96q145 0 209 -78t51 -207l-28 -283 q-4 -41 10 -74.5t42 -59.5t65.5 -42t80.5 -22q29 -4 29 -25v-121q0 -27 -29 -31q-45 -6 -83 -24.5t-64.5 -46t-40.5 -62t-10 -73.5l28 -328q12 -150 -56.5 -218.5t-182.5 -68.5h-113q-23 0 -31 6t-8 23v119z" />
<glyph unicode="~" horiz-adv-x="1077" d="M162 526q12 31 34.5 67t53.5 66.5t67.5 51t77.5 20.5q35 0 74 -18.5t77 -41t72.5 -41t63.5 -18.5q43 0 72.5 29t46.5 61q12 23 30 13l91 -33q20 -8 10 -33q-47 -92 -106.5 -155.5t-145.5 -63.5q-37 0 -74 18.5t-71.5 41t-68.5 41t-63 18.5q-35 0 -68.5 -24.5t-49.5 -53.5 q-8 -16 -15.5 -16t-17.5 4l-80 41q-20 6 -10 26z" />
<glyph horiz-adv-x="1226" d="M88 25v61q0 18 12.5 41t24.5 45l680 1135h-617q-43 0 -62.5 10t-14.5 39l6 106q2 18 8 27.5t43 9.5h913q16 0 31.5 -5t15.5 -19v-62q0 -16 -17 -48t-26 -46l-673 -1126h657q43 0 58.5 -6.5t15.5 -28.5v-119q0 -23 -9.5 -31t-46.5 -8h-964q-35 0 -35 25zM360 1896 q-41 53 13 54h76q18 0 27 -2t26 -23l145 -192l146 192q14 18 25 22q11 3 28 3h78q49 0 10 -54l-186 -262q-12 -16 -24 -29q-11 -13 -34 -14h-82q-27 0 -37 14q-10 13 -24 29z" />
<glyph horiz-adv-x="970" d="M60 28.5q-5 28.5 22 69.5l502 848h-453q-31 0 -40 5t-9 38v72q0 27 10 34t33 7h700q55 0 68.5 -15.5t-10.5 -56.5l-523 -874h492q29 0 41 -5.5t12 -39.5v-68q0 -29 -10 -36t-39 -7h-719q-72 0 -77 28.5zM227 1528q-41 53 13 53h75q18 0 28 -2q9 -2 26 -23l145 -192 l145 192q14 18 26 22q11 3 28 3h78q49 0 10 -53l-187 -262q-12 -16 -23 -30q-11 -13 -34 -13h-82q-27 0 -37 13t-24 30z" />
<glyph unicode="&#xa1;" horiz-adv-x="563" d="M147 1323v113q0 29 9.5 46t44.5 17h161q41 0 49.5 -16.5t8.5 -40.5v-115q0 -23 -8.5 -37t-36.5 -14h-168q-39 0 -49.5 8t-10.5 39zM172 70l27 923q0 37 7 51.5t27 14.5h82q37 0 45.5 -11.5t10.5 -56.5l26 -917q0 -35 -6 -54.5t-45 -19.5h-123q-35 0 -44 17.5t-7 52.5z " />
<glyph unicode="&#xa2;" horiz-adv-x="1165" d="M137 545q0 137 28 238.5t79 171t121.5 109.5t154.5 54v119q0 31 9.5 46t39.5 15h129q37 0 43.5 -14t6.5 -49v-111q186 -23 278 -147q10 -16 -11.5 -42t-53 -47.5t-62.5 -32.5t-39 3q-31 49 -81 82t-132 33q-113 0 -186.5 -78t-73.5 -246v-200q0 -84 20.5 -143.5 t56.5 -97.5t83 -55.5t102 -17.5q70 0 122 37t87 92q8 16 38 12t61.5 -18t54 -34t16.5 -34q-45 -80 -114.5 -132t-165.5 -70v-113q0 -41 -6.5 -56.5t-34.5 -15.5h-134q-35 0 -44 17.5t-9 58.5v109q-88 12 -158.5 46t-121 100.5t-77 166.5t-26.5 244z" />
<glyph unicode="&#xa3;" horiz-adv-x="1175" d="M104 678v82q0 37 13.5 43t48.5 6h106q-6 68 -19 138.5t-13 142.5q0 94 28.5 173.5t85 137t140.5 89.5t194 32q76 0 133.5 -9.5t102.5 -24.5t76.5 -33.5t54.5 -37.5q12 -10 10 -43t-12.5 -66.5t-24.5 -56t-27 -14.5q-53 41 -121.5 65.5t-152.5 24.5q-119 0 -185.5 -68.5 t-66.5 -203.5q0 -57 13.5 -124t19.5 -122h201q41 0 59 -6t18 -35v-82q0 -33 -14 -42t-61 -9h-197q-4 -141 -26.5 -238.5t-49.5 -175.5q-10 -27 29 -28q70 -2 141.5 -9.5t161.5 -7.5q39 0 78 3t73.5 8.5t60.5 11.5t36 10q29 8 35 -2t6 -33v-145q0 -18 -22.5 -29.5t-56.5 -18 t-74 -8.5t-72 -2q-51 0 -114 5.5t-123 10.5t-112.5 10t-78.5 5q-70 0 -115 -4t-90 -14q-31 -8 -42.5 10t3.5 57q53 147 83.5 285.5t35.5 298.5h-121q-31 0 -43.5 9t-12.5 34z" />
<glyph unicode="&#xa4;" d="M16 147v1156h1457v-1156h-1457zM176 373.5q2 -4.5 10 -4.5h72q14 0 18.5 5t8.5 21l45 154h243l48 -154q4 -16 6 -21t16 -5h80q14 0 21.5 4t-1.5 28l-204 670q-4 16 -11.5 24.5t-25.5 8.5h-82q-16 0 -23.5 -8.5t-13.5 -24.5l-203 -670q-6 -23 -4 -27.5zM352 625l101 336 l96 -336h-197zM727 1071l207 -678q4 -12 9 -18t22 -6h92q16 0 20 5t8 17l211 690q8 23 -22 23h-64q-10 0 -13 -5t-9 -22l-168 -565l-170 565q-4 16 -7 21.5t-18 5.5h-77q-12 0 -20.5 -5t-0.5 -28z" />
<glyph unicode="&#xa5;" horiz-adv-x="1210" d="M70 1493q10 6 34 6h179q23 0 33 -8t24 -35l313 -635l156 320q68 141 156 317q12 23 21 32t40 9h119q33 0 39 -9t-13 -44l-419 -830v-151h166q41 0 59 -5t18 -34v-80q0 -33 -14 -42t-61 -9h-168v-250q0 -27 -10.5 -36t-36.5 -9h-160q-25 0 -32 9t-7 32v254h-180 q-31 0 -44.5 9t-13.5 34v78q0 37 13.5 43t48.5 6h176v153l-430 840q-16 29 -6 35z" />
<glyph unicode="&#xa6;" d="M16 147v1156h1457v-1156h-1457zM176 373.5q2 -4.5 10 -4.5h72q14 0 18.5 5t8.5 21l45 154h243l48 -154q4 -16 6 -21t16 -5h80q14 0 21.5 4t-1.5 28l-204 670q-4 16 -11.5 24.5t-25.5 8.5h-82q-16 0 -23.5 -8.5t-13.5 -24.5l-203 -670q-6 -23 -4 -27.5zM352 625l101 336 l96 -336h-197zM727 1071l207 -678q4 -12 9 -18t22 -6h92q16 0 20 5t8 17l211 690q8 23 -22 23h-64q-10 0 -13 -5t-9 -22l-168 -565l-170 565q-4 16 -7 21.5t-18 5.5h-77q-12 0 -20.5 -5t-0.5 -28z" />
<glyph unicode="&#xa7;" horiz-adv-x="1007" d="M145 682q0 55 20.5 101t55.5 80t80 53.5t96 23.5q-43 25 -84 55.5t-74.5 67.5t-54 79t-20.5 87q0 74 32.5 129t87 92t125 54.5t148.5 17.5q113 0 184.5 -12.5t92.5 -22.5q8 -4 6 -29.5t-10.5 -56.5t-20.5 -54.5t-25 -19.5q-49 14 -111.5 27.5t-121.5 13.5q-90 0 -137 -34 t-47 -99q0 -25 16 -47.5t44 -46t64.5 -46t75.5 -44.5q61 -35 118.5 -72t100.5 -82t69 -99t26 -126q0 -57 -16.5 -102.5t-43 -78t-60.5 -55t-71 -33.5q72 -53 122 -122.5t50 -155.5q0 -82 -32.5 -140.5t-86 -95t-122 -53t-138.5 -16.5q-131 0 -209.5 24.5t-109.5 40.5 q-8 4 -10 31t1 56.5t12 52t26 16.5q31 -10 92 -30.5t166 -20.5q106 0 157 40t51 103t-55 115.5t-160 103.5q-59 29 -113.5 60.5t-95 70.5t-65.5 88.5t-25 110.5zM328 688q0 -27 15 -56.5t43 -56t67 -44t86 -19.5q72 -4 115.5 30.5t43.5 116.5q0 31 -12 61t-36.5 53.5 t-60.5 38.5t-85 17q-86 6 -131 -36.5t-45 -104.5z" />
<glyph unicode="&#xa8;" horiz-adv-x="970" d="M109 1325v131q0 25 7 41t38 16h131q33 0 43 -16t10 -41v-121q0 -23 -9.5 -37t-37.5 -14h-127q-35 0 -45 8t-10 33zM549 1341v121q0 51 45 51h127q39 0 48 -10t9 -37v-127q0 -23 -8 -39t-37 -16h-119q-43 0 -54 16.5t-11 40.5z" />
<glyph unicode="&#xa9;" horiz-adv-x="1556" d="M51 731q0 154 56.5 287t154.5 231.5t231.5 155.5t284.5 57q152 0 285 -57t231.5 -155.5t154.5 -231.5t56 -287t-56 -287t-154.5 -231t-231.5 -155.5t-285 -57.5t-285 57.5t-231 155.5t-154.5 231.5t-56.5 286.5zM162 731q0 -133 48 -247.5t132 -199.5t196.5 -133.5 t239.5 -48.5t239.5 48.5t196.5 133.5t132.5 199.5t48.5 247.5t-48.5 248t-132.5 200t-196.5 133t-239.5 48t-239.5 -48t-196.5 -133t-132 -200t-48 -248zM514 569v287q0 53 13.5 100.5t47 83t93 56t151.5 20.5q90 0 129 -17.5t51 -25.5q2 -4 -1 -19.5t-10 -34t-14 -32.5 t-9 -12q-18 8 -48 20.5t-88 12.5q-90 0 -134 -38t-44 -124v-264q0 -137 156 -138q70 0 107.5 15.5t56.5 21.5q4 2 10 -13t10 -33.5t5 -36t-3 -19.5q-23 -14 -74 -26.5t-122 -12.5q-137 0 -210 61.5t-73 167.5z" />
<glyph unicode="&#xaa;" horiz-adv-x="903" d="M106 1106q0 193 65 302.5t189 109.5q92 0 147.5 -33t86.5 -88v65q0 35 27 35h98q31 0 36 -10t5 -33v-672q0 -29 -4 -43t-27 -14h-100q-16 0 -24.5 7t-8.5 36v59q-23 -47 -86.5 -81.5t-147.5 -34.5q-53 0 -99 21.5t-81 69.5t-55.5 122.5t-20.5 181.5zM283 1049 q0 -90 36.5 -156t108.5 -66q33 0 61.5 16.5t50 41t33 54.5t11.5 58v222q0 25 -10.5 56.5t-31 59t-49 47t-67.5 19.5q-143 0 -143 -230v-122z" />
<glyph unicode="&#xab;" horiz-adv-x="1157" d="M70 655l303 447q14 23 26.5 30t30.5 -6l102 -57q16 -12 16.5 -24.5t-16.5 -34.5l-247 -355l260 -360q25 -37 -6 -51l-103 -58q-18 -10 -30.5 -3t-24.5 28zM528 655l303 447q14 23 26.5 30t31.5 -6l102 -57q16 -12 16.5 -24.5t-16.5 -34.5l-248 -355l261 -360 q25 -37 -7 -51l-102 -58q-18 -10 -30.5 -3t-24.5 28z" />
<glyph unicode="&#xac;" d="M16 147v1156h1457v-1156h-1457zM176 373.5q2 -4.5 10 -4.5h72q14 0 18.5 5t8.5 21l45 154h243l48 -154q4 -16 6 -21t16 -5h80q14 0 21.5 4t-1.5 28l-204 670q-4 16 -11.5 24.5t-25.5 8.5h-82q-16 0 -23.5 -8.5t-13.5 -24.5l-203 -670q-6 -23 -4 -27.5zM352 625l101 336 l96 -336h-197zM727 1071l207 -678q4 -12 9 -18t22 -6h92q16 0 20 5t8 17l211 690q8 23 -22 23h-64q-10 0 -13 -5t-9 -22l-168 -565l-170 565q-4 16 -7 21.5t-18 5.5h-77q-12 0 -20.5 -5t-0.5 -28z" />
<glyph unicode="&#xad;" horiz-adv-x="1050" d="M164 569v101q0 37 14.5 42t48.5 5h588q41 0 58.5 -5t17.5 -34v-100q0 -33 -14.5 -42.5t-61.5 -9.5h-594q-31 0 -44 9.5t-13 33.5z" />
<glyph unicode="&#xae;" horiz-adv-x="1556" d="M51 731q0 154 56.5 287t154.5 231.5t231.5 155.5t284.5 57q152 0 285 -57t231.5 -155.5t154.5 -231.5t56 -287t-56 -287t-154.5 -231t-231.5 -155.5t-285 -57.5t-285 57.5t-231 155.5t-154.5 231.5t-56.5 286.5zM162 731q0 -133 48 -247.5t132 -199.5t196.5 -133.5 t239.5 -48.5t239.5 48.5t196.5 133.5t132.5 199.5t48.5 247.5t-48.5 248t-132.5 200t-196.5 133t-239.5 48t-239.5 -48t-196.5 -133t-132 -200t-48 -248zM537 397v684q0 16 4 21.5t20 5.5h232q137 0 202.5 -61.5t65.5 -163.5q0 -47 -16.5 -82t-38 -58.5t-46 -38t-38.5 -18.5 q-8 -4 -10.5 -5t1.5 -9l170 -279q23 -37 -8 -37h-106q-12 0 -17.5 8.5t-11.5 20.5l-166 264q-4 8 -18 8h-70q-10 0 -11 -3t-1 -15v-248q0 -20 -5 -26.5t-20 -6.5h-94q-16 0 -17 9.5t-1 29.5zM674 788q0 -12 4 -15t16 -3h117q47 0 78 27t31 90q0 115 -134 114h-94 q-12 2 -15 -5t-3 -13v-195z" />
<glyph unicode="&#xaf;" horiz-adv-x="970" d="M162 1374v64q0 37 13 42t48 5h547q41 0 59.5 -5t18.5 -34v-62q0 -35 -14.5 -44t-61.5 -9h-553q-31 0 -44 9.5t-13 33.5z" />
<glyph unicode="&#xb0;" horiz-adv-x="858" d="M145 1217q0 59 22.5 112t62.5 93t93.5 62.5t112.5 22.5t111.5 -22.5t92.5 -62.5t62.5 -93t22.5 -112t-22.5 -111.5t-62.5 -92.5t-92 -63.5t-112 -23.5q-59 0 -112.5 21.5t-93.5 60.5t-62.5 92t-22.5 117zM287 1217q0 -72 43 -116t106 -44q61 0 105.5 44t44.5 116 q0 66 -44 113.5t-106 47.5q-63 0 -106 -48t-43 -113z" />
<glyph unicode="&#xb1;" horiz-adv-x="1808" d="M84 956v70q0 43 33 43h102q-12 25 -26.5 67t-12.5 119q0 49 14.5 97.5t46 86.5t83 60.5t125.5 22.5q66 0 110.5 -8.5t69.5 -18.5q8 -4 7 -28.5t-6 -53.5t-13.5 -51.5t-14.5 -22.5q-33 8 -47 11.5t-49 3.5q-41 0 -72 -31t-31 -94q0 -53 17.5 -92t40.5 -66h364 q-12 25 -26.5 66t-12.5 118q0 49 14.5 97.5t46.5 86.5t83 60.5t125 22.5q66 0 110.5 -8.5t69.5 -18.5q8 -4 7 -28.5t-6 -53.5t-13.5 -51.5t-14.5 -22.5q-33 8 -47 11.5t-49 3.5q-41 0 -71.5 -31t-30.5 -94q0 -53 17 -92t40 -66h137q33 0 40 -10t7 -31v-72q0 -18 -8 -31.5 t-39 -13.5h-133v-845q0 -68 -47 -68h-125q-23 0 -40 12.5t-17 40.5v860h-377v-845q0 -68 -47 -68h-125q-23 0 -40 12.5t-17 40.5v860h-107q-29 0 -37 9.5t-8 33.5zM1446 68v1398q0 29 9 42.5t40 13.5h129q37 0 43 -13.5t6 -48.5v-1388q0 -41 -6 -56.5t-35 -15.5h-135 q-33 0 -42 12.5t-9 55.5z" />
<glyph unicode="&#xb2;" d="M16 147v1156h1457v-1156h-1457zM176 373.5q2 -4.5 10 -4.5h72q14 0 18.5 5t8.5 21l45 154h243l48 -154q4 -16 6 -21t16 -5h80q14 0 21.5 4t-1.5 28l-204 670q-4 16 -11.5 24.5t-25.5 8.5h-82q-16 0 -23.5 -8.5t-13.5 -24.5l-203 -670q-6 -23 -4 -27.5zM352 625l101 336 l96 -336h-197zM727 1071l207 -678q4 -12 9 -18t22 -6h92q16 0 20 5t8 17l211 690q8 23 -22 23h-64q-10 0 -13 -5t-9 -22l-168 -565l-170 565q-4 16 -7 21.5t-18 5.5h-77q-12 0 -20.5 -5t-0.5 -28z" />
<glyph unicode="&#xb3;" d="M16 147v1156h1457v-1156h-1457zM176 373.5q2 -4.5 10 -4.5h72q14 0 18.5 5t8.5 21l45 154h243l48 -154q4 -16 6 -21t16 -5h80q14 0 21.5 4t-1.5 28l-204 670q-4 16 -11.5 24.5t-25.5 8.5h-82q-16 0 -23.5 -8.5t-13.5 -24.5l-203 -670q-6 -23 -4 -27.5zM352 625l101 336 l96 -336h-197zM727 1071l207 -678q4 -12 9 -18t22 -6h92q16 0 20 5t8 17l211 690q8 23 -22 23h-64q-10 0 -13 -5t-9 -22l-168 -565l-170 565q-4 16 -7 21.5t-18 5.5h-77q-12 0 -20.5 -5t-0.5 -28z" />
<glyph unicode="&#xb4;" horiz-adv-x="970" d="M285 1276l188 262q16 23 25.5 33t36.5 10h143q43 0 45 -14.5t-27 -42.5l-254 -264q-14 -16 -29.5 -26.5t-35.5 -10.5h-80q-47 0 -12 53z" />
<glyph unicode="&#xb5;" d="M16 147v1156h1457v-1156h-1457zM176 373.5q2 -4.5 10 -4.5h72q14 0 18.5 5t8.5 21l45 154h243l48 -154q4 -16 6 -21t16 -5h80q14 0 21.5 4t-1.5 28l-204 670q-4 16 -11.5 24.5t-25.5 8.5h-82q-16 0 -23.5 -8.5t-13.5 -24.5l-203 -670q-6 -23 -4 -27.5zM352 625l101 336 l96 -336h-197zM727 1071l207 -678q4 -12 9 -18t22 -6h92q16 0 20 5t8 17l211 690q8 23 -22 23h-64q-10 0 -13 -5t-9 -22l-168 -565l-170 565q-4 16 -7 21.5t-18 5.5h-77q-12 0 -20.5 -5t-0.5 -28z" />
<glyph unicode="&#xb6;" horiz-adv-x="1179" d="M129 985q0 129 46 225.5t130 161t201 96t256 31.5h182q43 0 58.5 -12t15.5 -41v-1739q0 -35 -4 -53.5t-35 -18.5h-90q-27 0 -27 23v1677q0 10 -1 18.5t-17 8.5h-66q-23 0 -22 -27v-1677q0 -23 -27 -23h-78q-29 0 -39 8.5t-10 34.5v781q0 33 -14.5 44t-34.5 11 q-68 0 -142.5 26.5t-137 83t-103.5 145.5t-41 216z" />
<glyph unicode="&#xb7;" horiz-adv-x="501" d="M115 582v110q0 20 10 38t31 18h168q45 0 54 -12.5t9 -35.5v-110q0 -27 -5 -50.5t-44 -23.5h-158q-39 0 -52 19.5t-13 46.5z" />
<glyph unicode="&#xb8;" horiz-adv-x="970" d="M287 -321.5q6 14.5 18 26.5t25.5 18.5t17.5 0.5q14 -18 43 -30.5t66 -12.5q51 0 83.5 17t32.5 58q0 47 -27.5 62.5t-76.5 15.5q-14 0 -35 -4q-10 -2 -15 -1t-5 11v193h118v-117q76 0 124.5 -40t48.5 -120q0 -86 -69 -130t-171 -44q-66 0 -103.5 15.5t-72.5 56.5 q-8 10 -2 24.5z" />
<glyph unicode="&#xb9;" d="M16 147v1156h1457v-1156h-1457zM176 373.5q2 -4.5 10 -4.5h72q14 0 18.5 5t8.5 21l45 154h243l48 -154q4 -16 6 -21t16 -5h80q14 0 21.5 4t-1.5 28l-204 670q-4 16 -11.5 24.5t-25.5 8.5h-82q-16 0 -23.5 -8.5t-13.5 -24.5l-203 -670q-6 -23 -4 -27.5zM352 625l101 336 l96 -336h-197zM727 1071l207 -678q4 -12 9 -18t22 -6h92q16 0 20 5t8 17l211 690q8 23 -22 23h-64q-10 0 -13 -5t-9 -22l-168 -565l-170 565q-4 16 -7 21.5t-18 5.5h-77q-12 0 -20.5 -5t-0.5 -28z" />
<glyph unicode="&#xba;" horiz-adv-x="921" d="M123 1102q0 113 25.5 190.5t72.5 126.5t112.5 70.5t147.5 21.5q158 0 245 -94t87 -315q0 -203 -89 -300t-251 -97q-84 0 -149.5 19t-109.5 65.5t-67.5 122t-23.5 190.5zM301 1034q0 -109 49 -160t127 -51q82 0 124 65.5t42 162.5v131q0 94 -40 152.5t-128 58.5 q-78 0 -126 -54.5t-48 -164.5v-140z" />
<glyph unicode="&#xbb;" horiz-adv-x="1157" d="M142.5 262q-1.5 10 13.5 33l262 362l-248 353q-29 39 0 55l100 61q20 14 32.5 5t29.5 -31l299 -443l-312 -450q-12 -16 -23 -23.5t-30 2.5l-102 56q-20 10 -21.5 20zM601.5 262q-1.5 10 12.5 33l263 362l-248 353q-29 39 0 55l100 61q20 14 32.5 5t29.5 -31l299 -443 l-312 -450q-12 -16 -23.5 -23.5t-29.5 2.5l-102 56q-20 10 -21.5 20z" />
<glyph unicode="&#xbc;" d="M16 147v1156h1457v-1156h-1457zM176 373.5q2 -4.5 10 -4.5h72q14 0 18.5 5t8.5 21l45 154h243l48 -154q4 -16 6 -21t16 -5h80q14 0 21.5 4t-1.5 28l-204 670q-4 16 -11.5 24.5t-25.5 8.5h-82q-16 0 -23.5 -8.5t-13.5 -24.5l-203 -670q-6 -23 -4 -27.5zM352 625l101 336 l96 -336h-197zM727 1071l207 -678q4 -12 9 -18t22 -6h92q16 0 20 5t8 17l211 690q8 23 -22 23h-64q-10 0 -13 -5t-9 -22l-168 -565l-170 565q-4 16 -7 21.5t-18 5.5h-77q-12 0 -20.5 -5t-0.5 -28z" />
<glyph unicode="&#xbd;" d="M16 147v1156h1457v-1156h-1457zM176 373.5q2 -4.5 10 -4.5h72q14 0 18.5 5t8.5 21l45 154h243l48 -154q4 -16 6 -21t16 -5h80q14 0 21.5 4t-1.5 28l-204 670q-4 16 -11.5 24.5t-25.5 8.5h-82q-16 0 -23.5 -8.5t-13.5 -24.5l-203 -670q-6 -23 -4 -27.5zM352 625l101 336 l96 -336h-197zM727 1071l207 -678q4 -12 9 -18t22 -6h92q16 0 20 5t8 17l211 690q8 23 -22 23h-64q-10 0 -13 -5t-9 -22l-168 -565l-170 565q-4 16 -7 21.5t-18 5.5h-77q-12 0 -20.5 -5t-0.5 -28z" />
<glyph unicode="&#xbe;" d="M16 147v1156h1457v-1156h-1457zM176 373.5q2 -4.5 10 -4.5h72q14 0 18.5 5t8.5 21l45 154h243l48 -154q4 -16 6 -21t16 -5h80q14 0 21.5 4t-1.5 28l-204 670q-4 16 -11.5 24.5t-25.5 8.5h-82q-16 0 -23.5 -8.5t-13.5 -24.5l-203 -670q-6 -23 -4 -27.5zM352 625l101 336 l96 -336h-197zM727 1071l207 -678q4 -12 9 -18t22 -6h92q16 0 20 5t8 17l211 690q8 23 -22 23h-64q-10 0 -13 -5t-9 -22l-168 -565l-170 565q-4 16 -7 21.5t-18 5.5h-77q-12 0 -20.5 -5t-0.5 -28z" />
<glyph unicode="&#xbf;" horiz-adv-x="909" d="M96 309q0 106 47 187.5t104.5 148t104.5 124.5t47 120v108q0 51 45 52h134q27 0 37 -10.5t8 -39.5q2 -29 2 -57q0 -25 -3.5 -52.5t-7.5 -49.5q-16 -66 -64 -122t-98.5 -111.5t-89 -115t-38.5 -131.5q0 -205 194 -204q31 0 65.5 9t66.5 22.5t58.5 29.5t45.5 31 q12 8 27.5 -12.5t26.5 -50t13 -59.5t-12 -42q-16 -12 -46 -29.5t-71 -35t-92 -30t-111 -12.5q-182 0 -287.5 89t-105.5 243zM373 1321v104q0 27 5 50.5t44 23.5h158q41 0 54 -19.5t13 -45.5v-103q0 -23 -10 -39t-33 -16h-174q-35 0 -46 11t-11 34z" />
<glyph unicode="&#xc0;" horiz-adv-x="1308" d="M73 10q-5 10 9 58l416 1366q10 35 25.5 50t49.5 15h168q35 0 49.5 -15.5t26.5 -49.5l416 -1366q16 -49 1 -58.5t-44 -9.5h-162q-29 0 -34 10t-15 43l-88 287h-510l-86 -287q-10 -33 -18.5 -43t-32.5 -10h-148q-18 0 -23 10zM329.5 1936q2.5 14 43.5 14h143q27 0 37 -10 t27 -33l186 -262q39 -53 -10 -53h-80q-20 0 -35.5 10t-30.5 27l-254 264q-29 29 -26.5 43zM436 522h400l-199 684z" />
<glyph unicode="&#xc1;" horiz-adv-x="1308" d="M73 10q-5 10 9 58l416 1366q10 35 25.5 50t49.5 15h168q35 0 49.5 -15.5t26.5 -49.5l416 -1366q16 -49 1 -58.5t-44 -9.5h-162q-29 0 -34 10t-15 43l-88 287h-510l-86 -287q-10 -33 -18.5 -43t-32.5 -10h-148q-18 0 -23 10zM436 522h400l-199 684zM566 1645l188 262 q16 23 25.5 33t36.5 10h143q43 0 45 -14.5t-27 -42.5l-254 -264q-14 -16 -29.5 -26.5t-35.5 -10.5h-80q-47 0 -12 53z" />
<glyph unicode="&#xc2;" horiz-adv-x="1308" d="M73 10q-5 10 9 58l416 1366q10 35 25.5 50t49.5 15h168q35 0 49.5 -15.5t26.5 -49.5l416 -1366q16 -49 1 -58.5t-44 -9.5h-162q-29 0 -34 10t-15 43l-88 287h-510l-86 -287q-10 -33 -18.5 -43t-32.5 -10h-148q-18 0 -23 10zM351.5 1606q-0.5 14 17.5 39l186 262 q12 16 23.5 29.5t34.5 13.5h82q27 0 37 -13.5t24 -29.5l186 -262q39 -53 -12 -53h-76q-18 0 -28.5 3t-24.5 21l-145 193l-146 -193q-16 -18 -26.5 -21t-26.5 -3h-78q-27 0 -27.5 14zM436 522h400l-199 684z" />
<glyph unicode="&#xc3;" horiz-adv-x="1308" d="M73 10q-5 10 9 58l416 1366q10 35 25.5 50t49.5 15h168q35 0 49.5 -15.5t26.5 -49.5l416 -1366q16 -49 1 -58.5t-44 -9.5h-162q-29 0 -34 10t-15 43l-88 287h-510l-86 -287q-10 -33 -18.5 -43t-32.5 -10h-148q-18 0 -23 10zM293 1723q12 29 33.5 62.5t50 63t63.5 49 t76 19.5q35 0 72 -18.5t73.5 -40t70.5 -39.5t63 -18q43 0 73.5 26.5t46.5 57.5q10 23 29 12l82 -27q18 -8 8 -31q-45 -90 -103.5 -147t-140.5 -57q-35 0 -70.5 17t-69.5 38.5t-65.5 39t-60.5 17.5q-35 0 -67.5 -24.5t-48.5 -53.5q-8 -14 -14.5 -15t-16.5 3l-76 39 q-16 8 -8 27zM436 522h400l-199 684z" />
<glyph unicode="&#xc4;" horiz-adv-x="1308" d="M73 10q-5 10 9 58l416 1366q10 35 25.5 50t49.5 15h168q35 0 49.5 -15.5t26.5 -49.5l416 -1366q16 -49 1 -58.5t-44 -9.5h-162q-29 0 -34 10t-15 43l-88 287h-510l-86 -287q-10 -33 -18.5 -43t-32.5 -10h-148q-18 0 -23 10zM312 1694v131q0 25 7 41t38 16h131 q33 0 43 -16t10 -41v-121q0 -23 -9.5 -37t-37.5 -14h-127q-35 0 -45 8t-10 33zM436 522h400l-199 684zM752 1710v121q0 51 45 51h127q39 0 48 -10t9 -37v-127q0 -23 -8 -39t-37 -16h-119q-43 0 -54 16.5t-11 40.5z" />
<glyph unicode="&#xc5;" horiz-adv-x="1308" d="M73 10q-5 10 9 58l416 1366q10 35 25.5 50t49.5 15h168q35 0 49.5 -15.5t26.5 -49.5l416 -1366q16 -49 1 -58.5t-44 -9.5h-162q-29 0 -34 10t-15 43l-88 287h-510l-86 -287q-10 -33 -18.5 -43t-32.5 -10h-148q-18 0 -23 10zM416 1819q0 49 19 92t53 76t78 51t93 18 t95 -18q45 -18 79 -51t53 -76t19 -92t-19 -93q-19 -43 -53 -75q-34 -33 -79 -52q-45 -18 -95 -18q-49 0 -93 18t-78 52q-34 33 -53 75q-19 43 -19 93zM436 522h400l-199 684zM535 1819q0 -49 34 -92q35 -42 90 -41q53 0 91 41q36 43 36 92t-35 91q-36 42 -92 42 q-53 0 -89 -42t-35 -91z" />
<glyph unicode="&#xc6;" horiz-adv-x="1820" d="M78 57l649 1377q16 35 27.5 50t46.5 15h833q37 0 46.5 -5t9.5 -28v-120q0 -25 -26 -29t-69 -4h-454q-35 0 -44.5 -10.5t-9.5 -22.5v-354q0 -29 10.5 -38t35.5 -9h403q43 0 54.5 -8.5t6.5 -28.5l-14 -115q-4 -33 -34.5 -36t-61.5 -3h-338q-33 0 -45 -10t-12 -37v-401 q0 -35 15 -40t42 -5h498q41 0 57 -7.5t16 -31.5v-119q0 -23 -13 -30t-30 -7h-776q-20 0 -33.5 12.5t-13.5 46.5v242q0 39 -37 39h-383l-135 -287q-12 -31 -25.5 -42t-35.5 -11h-138q-47 0 -22 57zM508 520h309q23 0 30 11.5t7 27.5v719z" />
<glyph unicode="&#xc7;" horiz-adv-x="1228" d="M152 428v576q0 106 26.5 200t95 165t187.5 112t303 41q88 0 150.5 -10.5t105.5 -23.5t66.5 -28.5t35.5 -23.5q8 -6 1 -34t-19 -58.5t-26.5 -54t-22.5 -21.5q-18 8 -42 18t-55.5 19.5t-74.5 16.5t-99 7q-207 0 -295 -86t-88 -260v-532q0 -84 30 -139.5t77 -89.5t107.5 -48 t121.5 -14q70 0 122 9t92 21.5t68 24.5t46 18q10 2 21.5 -23.5t19.5 -59t10 -64.5t-4 -37q-39 -25 -133 -48.5t-221 -27.5v-57q76 0 124 -40t48 -120q0 -86 -68.5 -130t-171.5 -44q-66 0 -103.5 15.5t-72.5 56.5q-8 10 -2 24.5t18.5 26.5t25.5 18.5t17 0.5q14 -18 43 -30.5 t66 -12.5q51 0 84 17t33 58q0 47 -28 62.5t-77 15.5q-14 0 -35 -4q-10 -2 -15 -1t-5 11v135q-236 18 -361.5 136t-125.5 317z" />
<glyph unicode="&#xc8;" horiz-adv-x="1128" d="M164 59v1373q0 29 5 48t34 19h741q37 0 46 -5t9 -28v-120q0 -25 -25.5 -29t-68.5 -4h-454q-35 0 -44.5 -10.5t-9.5 -22.5v-354q0 -29 10.5 -38t34.5 -9h406q43 0 54 -8.5t7 -28.5l-14 -115q-4 -33 -36 -36t-60 -3h-340q-33 0 -45.5 -10t-12.5 -37v-401q0 -35 16.5 -40 t43.5 -5h495q41 0 58.5 -7.5t17.5 -31.5v-119q0 -23 -13 -30t-30 -7h-778q-20 0 -33.5 12.5t-13.5 46.5zM317.5 1936q2.5 14 43.5 14h143q27 0 37 -10t27 -33l186 -262q39 -53 -10 -53h-80q-20 0 -35.5 10t-30.5 27l-254 264q-29 29 -26.5 43z" />
<glyph unicode="&#xc9;" horiz-adv-x="1128" d="M164 59v1373q0 29 5 48t34 19h741q37 0 46 -5t9 -28v-120q0 -25 -25.5 -29t-68.5 -4h-454q-35 0 -44.5 -10.5t-9.5 -22.5v-354q0 -29 10.5 -38t34.5 -9h406q43 0 54 -8.5t7 -28.5l-14 -115q-4 -33 -36 -36t-60 -3h-340q-33 0 -45.5 -10t-12.5 -37v-401q0 -35 16.5 -40 t43.5 -5h495q41 0 58.5 -7.5t17.5 -31.5v-119q0 -23 -13 -30t-30 -7h-778q-20 0 -33.5 12.5t-13.5 46.5zM482 1645l188 262q16 23 25.5 33t36.5 10h143q43 0 45 -14.5t-27 -42.5l-254 -264q-14 -16 -29.5 -26.5t-35.5 -10.5h-80q-47 0 -12 53z" />
<glyph unicode="&#xca;" horiz-adv-x="1128" d="M164 59v1373q0 29 5 48t34 19h741q37 0 46 -5t9 -28v-120q0 -25 -25.5 -29t-68.5 -4h-454q-35 0 -44.5 -10.5t-9.5 -22.5v-354q0 -29 10.5 -38t34.5 -9h406q43 0 54 -8.5t7 -28.5l-14 -115q-4 -33 -36 -36t-60 -3h-340q-33 0 -45.5 -10t-12.5 -37v-401q0 -35 16.5 -40 t43.5 -5h495q41 0 58.5 -7.5t17.5 -31.5v-119q0 -23 -13 -30t-30 -7h-778q-20 0 -33.5 12.5t-13.5 46.5zM285.5 1606q-0.5 14 17.5 39l186 262q12 16 23.5 29.5t34.5 13.5h82q27 0 37 -13.5t24 -29.5l186 -262q39 -53 -12 -53h-76q-18 0 -28.5 3t-24.5 21l-145 193 l-146 -193q-16 -18 -26.5 -21t-26.5 -3h-78q-27 0 -27.5 14z" />
<glyph unicode="&#xcb;" horiz-adv-x="1128" d="M164 59v1373q0 29 5 48t34 19h741q37 0 46 -5t9 -28v-120q0 -25 -25.5 -29t-68.5 -4h-454q-35 0 -44.5 -10.5t-9.5 -22.5v-354q0 -29 10.5 -38t34.5 -9h406q43 0 54 -8.5t7 -28.5l-14 -115q-4 -33 -36 -36t-60 -3h-340q-33 0 -45.5 -10t-12.5 -37v-401q0 -35 16.5 -40 t43.5 -5h495q41 0 58.5 -7.5t17.5 -31.5v-119q0 -23 -13 -30t-30 -7h-778q-20 0 -33.5 12.5t-13.5 46.5zM246 1694v131q0 25 7 41t38 16h131q33 0 43 -16t10 -41v-121q0 -23 -9.5 -37t-37.5 -14h-127q-35 0 -45 8t-10 33zM686 1710v121q0 51 45 51h127q39 0 48 -10t9 -37 v-127q0 -23 -8 -39t-37 -16h-119q-43 0 -54 16.5t-11 40.5z" />
<glyph unicode="&#xcc;" horiz-adv-x="575" d="M-43.5 1936q2.5 14 43.5 14h143q27 0 37 -10t27 -33l186 -262q39 -53 -10 -53h-80q-20 0 -35.5 10t-30.5 27l-254 264q-29 29 -26.5 43zM164 57v1397q0 29 10 37t45 8h152q29 0 35 -11t6 -46v-1395q0 -27 -7.5 -37t-35.5 -10h-158q-29 0 -38 11.5t-9 45.5z" />
<glyph unicode="&#xcd;" horiz-adv-x="575" d="M164 57v1397q0 29 10 37t45 8h152q29 0 35 -11t6 -46v-1395q0 -27 -7.5 -37t-35.5 -10h-158q-29 0 -38 11.5t-9 45.5zM193 1645l188 262q16 23 25.5 33t36.5 10h143q43 0 45 -14.5t-27 -42.5l-254 -264q-14 -16 -29.5 -26.5t-35.5 -10.5h-80q-47 0 -12 53z" />
<glyph unicode="&#xce;" horiz-adv-x="575" d="M-11.5 1606q-0.5 14 17.5 39l186 262q12 16 23.5 29.5t34.5 13.5h82q27 0 37 -13.5t24 -29.5l186 -262q39 -53 -12 -53h-76q-18 0 -28.5 3t-24.5 21l-145 193l-146 -193q-16 -18 -26.5 -21t-26.5 -3h-78q-27 0 -27.5 14zM164 57v1397q0 29 10 37t45 8h152q29 0 35 -11 t6 -46v-1395q0 -27 -7.5 -37t-35.5 -10h-158q-29 0 -38 11.5t-9 45.5z" />
<glyph unicode="&#xcf;" horiz-adv-x="575" d="M-49 1694v131q0 25 7 41t38 16h131q33 0 43 -16t10 -41v-121q0 -23 -9.5 -37t-37.5 -14h-127q-35 0 -45 8t-10 33zM164 57v1397q0 29 10 37t45 8h152q29 0 35 -11t6 -46v-1395q0 -27 -7.5 -37t-35.5 -10h-158q-29 0 -38 11.5t-9 45.5zM391 1710v121q0 51 45 51h127 q39 0 48 -10t9 -37v-127q0 -23 -8 -39t-37 -16h-119q-43 0 -54 16.5t-11 40.5z" />
<glyph unicode="&#xd0;" horiz-adv-x="1359" d="M43 713v100q0 37 14.5 42t48.5 5h58v572q0 31 7 49t36 18h416q115 0 220 -20.5t187 -73.5t130 -147.5t48 -241.5v-549q0 -156 -53 -248t-132 -141t-169 -63.5t-164 -14.5h-475q-20 0 -35.5 15.5t-15.5 56.5v598h-64q-31 0 -44 9t-13 34zM408 244q0 -23 9 -35t44 -12h166 q59 0 118.5 9t107.5 41t78 91t30 158v503q0 166 -91.5 236t-244.5 70h-170q-33 0 -40 -10.5t-7 -32.5v-402h161q41 0 58.5 -5t17.5 -34v-100q0 -33 -14.5 -42t-61.5 -9h-161v-426z" />
<glyph unicode="&#xd1;" horiz-adv-x="1472" d="M164 61v1373q0 4 1 14t4 21.5t10 20.5t22 9h143q25 0 39 -2t21.5 -7t12.5 -13.5t15 -20.5l598 -1016q23 -39 33 -33.5t10 64.5v963q0 23 6 45t27 20h158q27 0 34 -16.5t7 -50.5v-1360q0 -41 -8.5 -59.5t-36.5 -16.5l-148 2q-29 0 -43 11t-31 40l-596 1000q-25 41 -35 44 t-10 -46v-975q0 -41 -8 -56.5t-37 -15.5h-133q-16 0 -35.5 6t-19.5 55zM377 1723q12 29 33.5 62.5t50 63t63.5 49t76 19.5q35 0 72 -18.5t73.5 -40t70.5 -39.5t63 -18q43 0 73.5 26.5t46.5 57.5q10 23 29 12l82 -27q18 -8 8 -31q-45 -90 -103.5 -147t-140.5 -57 q-35 0 -70.5 17t-69.5 38.5t-65.5 39t-60.5 17.5q-35 0 -67.5 -24.5t-48.5 -53.5q-8 -14 -14.5 -15t-16.5 3l-76 39q-16 8 -8 27z" />
<glyph unicode="&#xd2;" horiz-adv-x="1415" d="M152 403v605q0 274 136 394t419 120q113 0 214 -24.5t178 -83t121 -156t44 -244.5v-547q0 -121 -29 -204t-75 -138t-105.5 -86t-121 -45t-119.5 -17.5t-101 -3.5q-76 0 -173.5 12.5t-183.5 57.5t-145 130t-59 230zM393 457q0 -78 29 -132.5t75 -87t102 -47t114 -14.5 q61 0 116.5 12.5t97.5 47t65.5 97t23.5 163.5v503q0 168 -76 245t-223 77q-90 0 -152.5 -21.5t-100.5 -62.5t-54.5 -103.5t-16.5 -142.5v-534zM435.5 1936q2.5 14 43.5 14h143q27 0 37 -10t27 -33l186 -262q39 -53 -10 -53h-80q-20 0 -35.5 10t-30.5 27l-254 264 q-29 29 -26.5 43z" />
<glyph unicode="&#xd3;" horiz-adv-x="1415" d="M152 403v605q0 274 136 394t419 120q113 0 214 -24.5t178 -83t121 -156t44 -244.5v-547q0 -121 -29 -204t-75 -138t-105.5 -86t-121 -45t-119.5 -17.5t-101 -3.5q-76 0 -173.5 12.5t-183.5 57.5t-145 130t-59 230zM393 457q0 -78 29 -132.5t75 -87t102 -47t114 -14.5 q61 0 116.5 12.5t97.5 47t65.5 97t23.5 163.5v503q0 168 -76 245t-223 77q-90 0 -152.5 -21.5t-100.5 -62.5t-54.5 -103.5t-16.5 -142.5v-534zM582 1645l188 262q16 23 25.5 33t36.5 10h143q43 0 45 -14.5t-27 -42.5l-254 -264q-14 -16 -29.5 -26.5t-35.5 -10.5h-80 q-47 0 -12 53z" />
<glyph unicode="&#xd4;" horiz-adv-x="1415" d="M152 403v605q0 274 136 394t419 120q113 0 214 -24.5t178 -83t121 -156t44 -244.5v-547q0 -121 -29 -204t-75 -138t-105.5 -86t-121 -45t-119.5 -17.5t-101 -3.5q-76 0 -173.5 12.5t-183.5 57.5t-145 130t-59 230zM393 457q0 -78 29 -132.5t75 -87t102 -47t114 -14.5 q61 0 116.5 12.5t97.5 47t65.5 97t23.5 163.5v503q0 168 -76 245t-223 77q-90 0 -152.5 -21.5t-100.5 -62.5t-54.5 -103.5t-16.5 -142.5v-534zM414.5 1606q-0.5 14 17.5 39l186 262q12 16 23.5 29.5t34.5 13.5h82q27 0 37 -13.5t24 -29.5l186 -262q39 -53 -12 -53h-76 q-18 0 -28.5 3t-24.5 21l-145 193l-146 -193q-16 -18 -26.5 -21t-26.5 -3h-78q-27 0 -27.5 14z" />
<glyph unicode="&#xd5;" horiz-adv-x="1415" d="M152 403v605q0 274 136 394t419 120q113 0 214 -24.5t178 -83t121 -156t44 -244.5v-547q0 -121 -29 -204t-75 -138t-105.5 -86t-121 -45t-119.5 -17.5t-101 -3.5q-76 0 -173.5 12.5t-183.5 57.5t-145 130t-59 230zM344 1723q12 29 33.5 62.5t50 63t63.5 49t76 19.5 q35 0 72 -18.5t73.5 -40t70.5 -39.5t63 -18q43 0 73.5 26.5t46.5 57.5q10 23 29 12l82 -27q18 -8 8 -31q-45 -90 -103.5 -147t-140.5 -57q-35 0 -70.5 17t-69.5 38.5t-65.5 39t-60.5 17.5q-35 0 -67.5 -24.5t-48.5 -53.5q-8 -14 -14.5 -15t-16.5 3l-76 39q-16 8 -8 27z M393 457q0 -78 29 -132.5t75 -87t102 -47t114 -14.5q61 0 116.5 12.5t97.5 47t65.5 97t23.5 163.5v503q0 168 -76 245t-223 77q-90 0 -152.5 -21.5t-100.5 -62.5t-54.5 -103.5t-16.5 -142.5v-534z" />
<glyph unicode="&#xd6;" horiz-adv-x="1415" d="M152 403v605q0 274 136 394t419 120q113 0 214 -24.5t178 -83t121 -156t44 -244.5v-547q0 -121 -29 -204t-75 -138t-105.5 -86t-121 -45t-119.5 -17.5t-101 -3.5q-76 0 -173.5 12.5t-183.5 57.5t-145 130t-59 230zM375 1694v131q0 25 7 41t38 16h131q33 0 43 -16t10 -41 v-121q0 -23 -9.5 -37t-37.5 -14h-127q-35 0 -45 8t-10 33zM393 457q0 -78 29 -132.5t75 -87t102 -47t114 -14.5q61 0 116.5 12.5t97.5 47t65.5 97t23.5 163.5v503q0 168 -76 245t-223 77q-90 0 -152.5 -21.5t-100.5 -62.5t-54.5 -103.5t-16.5 -142.5v-534zM815 1710v121 q0 51 45 51h127q39 0 48 -10t9 -37v-127q0 -23 -8 -39t-37 -16h-119q-43 0 -54 16.5t-11 40.5z" />
<glyph unicode="&#xd7;" d="M16 147v1156h1457v-1156h-1457zM176 373.5q2 -4.5 10 -4.5h72q14 0 18.5 5t8.5 21l45 154h243l48 -154q4 -16 6 -21t16 -5h80q14 0 21.5 4t-1.5 28l-204 670q-4 16 -11.5 24.5t-25.5 8.5h-82q-16 0 -23.5 -8.5t-13.5 -24.5l-203 -670q-6 -23 -4 -27.5zM352 625l101 336 l96 -336h-197zM727 1071l207 -678q4 -12 9 -18t22 -6h92q16 0 20 5t8 17l211 690q8 23 -22 23h-64q-10 0 -13 -5t-9 -22l-168 -565l-170 565q-4 16 -7 21.5t-18 5.5h-77q-12 0 -20.5 -5t-0.5 -28z" />
<glyph unicode="&#xd8;" horiz-adv-x="1415" d="M62 12.5q-3 12.5 30 53.5l103 137q-20 41 -31.5 90t-11.5 110v605q0 274 136 394t419 120q113 0 211 -22.5t176 -80.5l26 37q25 35 41.5 46t55.5 11h94q27 0 23.5 -13t-29.5 -48q-14 -20 -33 -43q-16 -20 -34.5 -48t-41.5 -56q33 -55 50.5 -127t17.5 -164v-547 q0 -121 -29 -204t-75 -138t-105.5 -86t-121 -45t-119.5 -17.5t-101 -3.5q-45 0 -99.5 4.5t-111 16.5t-111.5 33.5t-100 56.5q0 -2 -2 -4t-3 -5t-3 -5q-4 -6 -11 -13q-29 -37 -44 -47t-40 -10h-90q-33 0 -36 12.5zM393 473l559 756q-72 92 -235 92q-90 0 -152.5 -21.5 t-100.5 -62.5t-54.5 -103.5t-16.5 -142.5v-518zM444 289q47 -61 120 -87t149 -26q61 0 116.5 12.5t97.5 47t65.5 97t23.5 163.5v503v29.5t-2 28.5q-43 -55 -90 -119q-41 -53 -91.5 -123t-103.5 -141q-127 -170 -285 -385z" />
<glyph unicode="&#xd9;" horiz-adv-x="1368" d="M160 430v1016q0 29 7 40t28 13h155q27 0 39 -13t12 -54v-924q0 -160 78 -245t201 -85q86 0 140 23.5t86 66.5t44.5 104.5t12.5 139.5v934q0 29 7 40t27 13h160q27 0 39 -13t12 -54v-967q0 -162 -51 -258t-130 -148.5t-172 -69t-175 -16.5q-86 0 -178 21.5t-168 74 t-125 140.5t-49 221zM427.5 1936q2.5 14 43.5 14h143q27 0 37 -10t27 -33l186 -262q39 -53 -10 -53h-80q-20 0 -35.5 10t-30.5 27l-254 264q-29 29 -26.5 43z" />
<glyph unicode="&#xda;" horiz-adv-x="1368" d="M160 430v1016q0 29 7 40t28 13h155q27 0 39 -13t12 -54v-924q0 -160 78 -245t201 -85q86 0 140 23.5t86 66.5t44.5 104.5t12.5 139.5v934q0 29 7 40t27 13h160q27 0 39 -13t12 -54v-967q0 -162 -51 -258t-130 -148.5t-172 -69t-175 -16.5q-86 0 -178 21.5t-168 74 t-125 140.5t-49 221zM545 1645l188 262q16 23 25.5 33t36.5 10h143q43 0 45 -14.5t-27 -42.5l-254 -264q-14 -16 -29.5 -26.5t-35.5 -10.5h-80q-47 0 -12 53z" />
<glyph unicode="&#xdb;" horiz-adv-x="1368" d="M160 430v1016q0 29 7 40t28 13h155q27 0 39 -13t12 -54v-924q0 -160 78 -245t201 -85q86 0 140 23.5t86 66.5t44.5 104.5t12.5 139.5v934q0 29 7 40t27 13h160q27 0 39 -13t12 -54v-967q0 -162 -51 -258t-130 -148.5t-172 -69t-175 -16.5q-86 0 -178 21.5t-168 74 t-125 140.5t-49 221zM377.5 1606q-0.5 14 17.5 39l186 262q12 16 23.5 29.5t34.5 13.5h82q27 0 37 -13.5t24 -29.5l186 -262q39 -53 -12 -53h-76q-18 0 -28.5 3t-24.5 21l-145 193l-146 -193q-16 -18 -26.5 -21t-26.5 -3h-78q-27 0 -27.5 14z" />
<glyph unicode="&#xdc;" horiz-adv-x="1368" d="M160 430v1016q0 29 7 40t28 13h155q27 0 39 -13t12 -54v-924q0 -160 78 -245t201 -85q86 0 140 23.5t86 66.5t44.5 104.5t12.5 139.5v934q0 29 7 40t27 13h160q27 0 39 -13t12 -54v-967q0 -162 -51 -258t-130 -148.5t-172 -69t-175 -16.5q-86 0 -178 21.5t-168 74 t-125 140.5t-49 221zM353 1694v131q0 25 7 41t38 16h131q33 0 43 -16t10 -41v-121q0 -23 -9.5 -37t-37.5 -14h-127q-35 0 -45 8t-10 33zM793 1710v121q0 51 45 51h127q39 0 48 -10t9 -37v-127q0 -23 -8 -39t-37 -16h-119q-43 0 -54 16.5t-11 40.5z" />
<glyph unicode="&#xdd;" horiz-adv-x="1288" d="M60 1493q10 6 34 6h178q23 0 32 -8t26 -35l338 -629q25 45 51 99q23 45 52.5 101t62.5 116l167 315q14 23 22.5 32t39.5 9h127q33 0 40 -9t-13 -44q-125 -233 -224 -416q-43 -78 -83 -151.5t-71.5 -132t-50.5 -94.5l-18 -36v-571q0 -27 -10 -36t-37 -9h-162q-23 0 -31 9 t-8 32v577l-456 840q-16 29 -6 35zM600 1645l188 262q16 23 25.5 33t36.5 10h143q43 0 45 -14.5t-27 -42.5l-254 -264q-14 -16 -29.5 -26.5t-35.5 -10.5h-80q-47 0 -12 53z" />
<glyph unicode="&#xde;" horiz-adv-x="1298" d="M164 57v1397q0 29 10 37t45 8h152q29 0 35 -11t6 -46v-148q0 -16 5 -27.5t38 -11.5h196q561 0 561 -475q0 -238 -132 -362.5t-400 -124.5h-234q-23 0 -27.5 -7t-4.5 -34v-205q0 -27 -8.5 -37t-36.5 -10h-158q-29 0 -38 11.5t-9 45.5zM414 526q0 -27 8 -33t33 -6h247 q111 0 185 71t74 233q0 74 -26 127t-69 86.5t-101 49t-124 15.5h-190q-23 -2 -30 -13.5t-7 -23.5v-506z" />
<glyph unicode="&#xdf;" horiz-adv-x="1454" d="M84 956v70q0 43 33 43h110v135q0 55 20.5 111.5t67.5 102.5t124 75t188 29q174 0 281.5 -78t107.5 -230q0 -59 -22.5 -102t-48 -82t-48.5 -78t-23 -90q0 -55 55.5 -102t133.5 -88q68 -35 125 -74t99 -85t65.5 -101t23.5 -123q0 -86 -35.5 -145.5t-92 -96.5t-126 -53.5 t-137.5 -16.5q-76 0 -133 7.5t-98 17.5t-68 21.5t-41 19.5q-8 4 -10 30.5t1 56.5t12 52.5t26 16.5q14 -6 34.5 -14.5t50 -16.5t71.5 -14.5t102 -6.5q100 0 154.5 38t54.5 110q0 59 -54.5 111.5t-152.5 105.5q-59 31 -112.5 62.5t-93.5 69.5t-64.5 86t-24.5 110q0 51 24.5 93 t54.5 84t54.5 84t24.5 93q0 80 -47.5 120t-118.5 40q-80 0 -120 -53.5t-40 -131.5v-1101q0 -68 -47 -68h-131q-23 0 -40 12.5t-17 40.5v860h-107q-29 0 -37 9.5t-8 33.5z" />
<glyph unicode="&#xe0;" horiz-adv-x="1165" d="M104 545q0 135 24 243.5t70 184.5t113.5 116.5t155.5 40.5q133 0 212 -46t124 -123v90q0 51 37 51h131q43 0 51 -14.5t8 -47.5v-960q0 -41 -7 -60.5t-42 -19.5h-129q-23 0 -36 9t-13 50v86q-16 -33 -47 -63.5t-75 -53t-97.5 -37t-112.5 -14.5q-76 0 -142.5 32 t-116.5 99.5t-79 175t-29 261.5zM331.5 1567q2.5 14 43.5 14h143q27 0 37 -10t27 -33l186 -262q39 -53 -10 -53h-80q-20 0 -35.5 10t-30.5 27l-254 264q-29 29 -26.5 43zM346 463q0 -152 54.5 -241t164.5 -89q51 0 93 24.5t70 57.5t43 67.5t15 57.5v375q0 33 -12 78 t-39.5 86t-69.5 68.5t-104 27.5q-104 0 -159.5 -79t-55.5 -261v-172z" />
<glyph unicode="&#xe1;" horiz-adv-x="1165" d="M104 545q0 135 24 243.5t70 184.5t113.5 116.5t155.5 40.5q133 0 212 -46t124 -123v90q0 51 37 51h131q43 0 51 -14.5t8 -47.5v-960q0 -41 -7 -60.5t-42 -19.5h-129q-23 0 -36 9t-13 50v86q-16 -33 -47 -63.5t-75 -53t-97.5 -37t-112.5 -14.5q-76 0 -142.5 32 t-116.5 99.5t-79 175t-29 261.5zM346 463q0 -152 54.5 -241t164.5 -89q51 0 93 24.5t70 57.5t43 67.5t15 57.5v375q0 33 -12 78t-39.5 86t-69.5 68.5t-104 27.5q-104 0 -159.5 -79t-55.5 -261v-172zM478 1276l188 262q16 23 25.5 33t36.5 10h143q43 0 45 -14.5t-27 -42.5 l-254 -264q-14 -16 -29.5 -26.5t-35.5 -10.5h-80q-47 0 -12 53z" />
<glyph unicode="&#xe2;" horiz-adv-x="1165" d="M104 545q0 135 24 243.5t70 184.5t113.5 116.5t155.5 40.5q133 0 212 -46t124 -123v90q0 51 37 51h131q43 0 51 -14.5t8 -47.5v-960q0 -41 -7 -60.5t-42 -19.5h-129q-23 0 -36 9t-13 50v86q-16 -33 -47 -63.5t-75 -53t-97.5 -37t-112.5 -14.5q-76 0 -142.5 32 t-116.5 99.5t-79 175t-29 261.5zM306.5 1237q-0.5 14 17.5 39l186 262q12 16 23.5 29.5t34.5 13.5h82q27 0 37 -13.5t24 -29.5l186 -262q39 -53 -12 -53h-76q-18 0 -28.5 3t-24.5 21l-145 193l-146 -193q-16 -18 -26.5 -21t-26.5 -3h-78q-27 0 -27.5 14zM346 463 q0 -152 54.5 -241t164.5 -89q51 0 93 24.5t70 57.5t43 67.5t15 57.5v375q0 33 -12 78t-39.5 86t-69.5 68.5t-104 27.5q-104 0 -159.5 -79t-55.5 -261v-172z" />
<glyph unicode="&#xe3;" horiz-adv-x="1165" d="M104 545q0 135 24 243.5t70 184.5t113.5 116.5t155.5 40.5q133 0 212 -46t124 -123v90q0 51 37 51h131q43 0 51 -14.5t8 -47.5v-960q0 -41 -7 -60.5t-42 -19.5h-129q-23 0 -36 9t-13 50v86q-16 -33 -47 -63.5t-75 -53t-97.5 -37t-112.5 -14.5q-76 0 -142.5 32 t-116.5 99.5t-79 175t-29 261.5zM223 1354q12 29 33.5 62.5t50 63t63.5 49t76 19.5q35 0 72 -18.5t73.5 -40t70.5 -39.5t63 -18q43 0 73.5 26.5t46.5 57.5q10 23 29 12l82 -27q18 -8 8 -31q-45 -90 -103.5 -147t-140.5 -57q-35 0 -70.5 17t-69.5 38.5t-65.5 39t-60.5 17.5 q-35 0 -67.5 -24.5t-48.5 -53.5q-8 -14 -14.5 -15t-16.5 3l-76 39q-16 8 -8 27zM346 463q0 -152 54.5 -241t164.5 -89q51 0 93 24.5t70 57.5t43 67.5t15 57.5v375q0 33 -12 78t-39.5 86t-69.5 68.5t-104 27.5q-104 0 -159.5 -79t-55.5 -261v-172z" />
<glyph unicode="&#xe4;" horiz-adv-x="1165" d="M104 545q0 135 24 243.5t70 184.5t113.5 116.5t155.5 40.5q133 0 212 -46t124 -123v90q0 51 37 51h131q43 0 51 -14.5t8 -47.5v-960q0 -41 -7 -60.5t-42 -19.5h-129q-23 0 -36 9t-13 50v86q-16 -33 -47 -63.5t-75 -53t-97.5 -37t-112.5 -14.5q-76 0 -142.5 32 t-116.5 99.5t-79 175t-29 261.5zM259 1325v131q0 25 7 41t38 16h131q33 0 43 -16t10 -41v-121q0 -23 -9.5 -37t-37.5 -14h-127q-35 0 -45 8t-10 33zM346 463q0 -152 54.5 -241t164.5 -89q51 0 93 24.5t70 57.5t43 67.5t15 57.5v375q0 33 -12 78t-39.5 86t-69.5 68.5 t-104 27.5q-104 0 -159.5 -79t-55.5 -261v-172zM699 1341v121q0 51 45 51h127q39 0 48 -10t9 -37v-127q0 -23 -8 -39t-37 -16h-119q-43 0 -54 16.5t-11 40.5z" />
<glyph unicode="&#xe5;" horiz-adv-x="1165" d="M104 545q0 135 24 243.5t70 184.5t113.5 116.5t155.5 40.5q133 0 212 -46t124 -123v90q0 51 37 51h131q43 0 51 -14.5t8 -47.5v-960q0 -41 -7 -60.5t-42 -19.5h-129q-23 0 -36 9t-13 50v86q-16 -33 -47 -63.5t-75 -53t-97.5 -37t-112.5 -14.5q-76 0 -142.5 32 t-116.5 99.5t-79 175t-29 261.5zM346 463q0 -152 54.5 -241t164.5 -89q51 0 93 24.5t70 57.5t43 67.5t15 57.5v375q0 33 -12 78t-39.5 86t-69.5 68.5t-104 27.5q-104 0 -159.5 -79t-55.5 -261v-172zM362 1450q0 49 20 92q19 43 53 76t78 51t93 19q49 0 94 -19q45 -18 79 -51 t54 -76q19 -43 19 -92t-19 -92t-54 -76q-34 -33 -79 -51t-94 -19q-49 0 -93 19q-44 18 -78 51t-53 76t-20 92zM481 1450q0 -49 35 -91t90 -42q53 0 90 42t37 91t-36 91t-91 42q-53 0 -89 -42t-36 -91z" />
<glyph unicode="&#xe6;" horiz-adv-x="1818" d="M104 545q0 135 24 243.5t70 184.5t113.5 116.5t155.5 40.5q133 0 212 -46t124 -123v90q0 51 37 51h110q31 0 42.5 -6t15.5 -23q102 57 252 57q215 0 332.5 -107.5t117.5 -324.5v-123q0 -45 -13.5 -66.5t-70.5 -21.5h-608q0 -178 82 -257.5t227 -79.5q127 0 201 17t102 28 q29 10 43.5 4t14.5 -23v-102q0 -29 -13.5 -39t-54.5 -23q-10 -4 -42 -10t-75 -11t-92 -9.5t-94 -4.5q-188 0 -309 64q-4 -20 -13.5 -30.5t-33.5 -10.5h-109q-23 0 -36 9t-13 50v86q-16 -33 -47 -63.5t-75 -53t-97.5 -37t-112.5 -14.5q-76 0 -142.5 32t-116.5 99.5t-79 175 t-29 261.5zM346 463q0 -152 54.5 -241t164.5 -89q51 0 93 24.5t70 57.5t43 67.5t15 57.5v375q0 33 -12 78t-39.5 86t-69.5 68.5t-104 27.5q-104 0 -159.5 -79t-55.5 -261v-172zM1024 674q0 -23 2 -32t25 -9h413q16 0 19.5 8t3.5 31q-4 152 -54.5 231.5t-177.5 79.5 q-61 0 -105 -24.5t-71.5 -66.5t-41 -98.5t-13.5 -119.5z" />
<glyph unicode="&#xe7;" horiz-adv-x="1050" d="M102 545q0 160 37 271.5t104.5 181t162 101t210.5 31.5q131 0 223.5 -35.5t151.5 -117.5q10 -16 -11.5 -42t-53 -47.5t-62 -32.5t-39.5 3q-31 49 -81 82t-130 33q-115 0 -188.5 -78t-73.5 -246v-200q0 -84 20.5 -143.5t56.5 -97.5t83 -55.5t102 -17.5q70 0 122 37t87 92 q8 16 38 12t61.5 -18t54 -34t16.5 -34q-51 -94 -138 -149t-216 -64v-61q76 0 124 -40t48 -120q0 -86 -68.5 -130t-171.5 -44q-66 0 -103.5 15.5t-72.5 56.5q-8 10 -2 24.5t18.5 26.5t26 18.5t17.5 0.5q14 -18 42.5 -30.5t65.5 -12.5q51 0 84 17t33 58q0 47 -27.5 62.5 t-77.5 15.5q-14 0 -34 -4q-10 -2 -15.5 -1t-5.5 11v142q-98 8 -176 41.5t-132 100t-82 170t-28 251.5z" />
<glyph unicode="&#xe8;" horiz-adv-x="1136" d="M104 541q0 297 120 443t356 146q215 0 332.5 -112.5t117.5 -319.5v-127q0 -45 -13 -66.5t-71 -21.5h-608q0 -178 82 -255.5t227 -77.5q127 0 201 17t102 28q29 10 43.5 4t14.5 -23v-102q0 -29 -13.5 -39t-54.5 -23q-10 -4 -42 -10t-75 -11t-92 -9.5t-94 -4.5 q-133 0 -232.5 31t-166 98.5t-100.5 175t-34 259.5zM304.5 1567q2.5 14 43.5 14h143q27 0 37 -10t27 -33l186 -262q39 -53 -10 -53h-80q-20 0 -35.5 10t-30.5 27l-254 264q-29 29 -26.5 43zM344 680q0 -23 2 -32t25 -9h413q16 0 19.5 8t3.5 31q-4 147 -54.5 226t-177.5 79 q-61 0 -105 -24.5t-71.5 -65.5t-41 -96.5t-13.5 -116.5z" />
<glyph unicode="&#xe9;" horiz-adv-x="1136" d="M104 541q0 297 120 443t356 146q215 0 332.5 -112.5t117.5 -319.5v-127q0 -45 -13 -66.5t-71 -21.5h-608q0 -178 82 -255.5t227 -77.5q127 0 201 17t102 28q29 10 43.5 4t14.5 -23v-102q0 -29 -13.5 -39t-54.5 -23q-10 -4 -42 -10t-75 -11t-92 -9.5t-94 -4.5 q-133 0 -232.5 31t-166 98.5t-100.5 175t-34 259.5zM344 680q0 -23 2 -32t25 -9h413q16 0 19.5 8t3.5 31q-4 147 -54.5 226t-177.5 79q-61 0 -105 -24.5t-71.5 -65.5t-41 -96.5t-13.5 -116.5zM445 1276l188 262q16 23 25.5 33t36.5 10h143q43 0 45 -14.5t-27 -42.5 l-254 -264q-14 -16 -29.5 -26.5t-35.5 -10.5h-80q-47 0 -12 53z" />
<glyph unicode="&#xea;" horiz-adv-x="1136" d="M104 541q0 297 120 443t356 146q215 0 332.5 -112.5t117.5 -319.5v-127q0 -45 -13 -66.5t-71 -21.5h-608q0 -178 82 -255.5t227 -77.5q127 0 201 17t102 28q29 10 43.5 4t14.5 -23v-102q0 -29 -13.5 -39t-54.5 -23q-10 -4 -42 -10t-75 -11t-92 -9.5t-94 -4.5 q-133 0 -232.5 31t-166 98.5t-100.5 175t-34 259.5zM285.5 1237q-0.5 14 17.5 39l186 262q12 16 23.5 29.5t34.5 13.5h82q27 0 37 -13.5t24 -29.5l186 -262q39 -53 -12 -53h-76q-18 0 -28.5 3t-24.5 21l-145 193l-146 -193q-16 -18 -26.5 -21t-26.5 -3h-78q-27 0 -27.5 14z M344 680q0 -23 2 -32t25 -9h413q16 0 19.5 8t3.5 31q-4 147 -54.5 226t-177.5 79q-61 0 -105 -24.5t-71.5 -65.5t-41 -96.5t-13.5 -116.5z" />
<glyph unicode="&#xeb;" horiz-adv-x="1136" d="M104 541q0 297 120 443t356 146q215 0 332.5 -112.5t117.5 -319.5v-127q0 -45 -13 -66.5t-71 -21.5h-608q0 -178 82 -255.5t227 -77.5q127 0 201 17t102 28q29 10 43.5 4t14.5 -23v-102q0 -29 -13.5 -39t-54.5 -23q-10 -4 -42 -10t-75 -11t-92 -9.5t-94 -4.5 q-133 0 -232.5 31t-166 98.5t-100.5 175t-34 259.5zM252 1325v131q0 25 7 41t38 16h131q33 0 43 -16t10 -41v-121q0 -23 -9.5 -37t-37.5 -14h-127q-35 0 -45 8t-10 33zM344 680q0 -23 2 -32t25 -9h413q16 0 19.5 8t3.5 31q-4 147 -54.5 226t-177.5 79q-61 0 -105 -24.5 t-71.5 -65.5t-41 -96.5t-13.5 -116.5zM692 1341v121q0 51 45 51h127q39 0 48 -10t9 -37v-127q0 -23 -8 -39t-37 -16h-119q-43 0 -54 16.5t-11 40.5z" />
<glyph unicode="&#xec;" horiz-adv-x="497" d="M-108.5 1567q2.5 14 43.5 14h143q27 0 37 -10t27 -33l186 -262q39 -53 -10 -53h-80q-20 0 -35.5 10t-30.5 27l-254 264q-29 29 -26.5 43zM135 72v968q0 31 9 46t40 16h129q37 0 43 -13t6 -49v-968q0 -41 -6 -57q-6 -15 -34 -15h-144q-29 0 -36 15t-7 57z" />
<glyph unicode="&#xed;" horiz-adv-x="497" d="M135 72v968q0 31 9 46t40 16h129q37 0 43 -13t6 -49v-968q0 -41 -6 -57q-6 -15 -34 -15h-144q-29 0 -36 15t-7 57zM179 1276l188 262q16 23 25.5 33t36.5 10h143q43 0 45 -14.5t-27 -42.5l-254 -264q-14 -16 -29.5 -26.5t-35.5 -10.5h-80q-47 0 -12 53z" />
<glyph unicode="&#xee;" horiz-adv-x="497" d="M-50.5 1237q-0.5 14 17.5 39l186 262q12 16 23.5 29.5t34.5 13.5h82q27 0 37 -13.5t24 -29.5l186 -262q39 -53 -12 -53h-76q-18 0 -28.5 3t-24.5 21l-145 193l-146 -193q-16 -18 -26.5 -21t-26.5 -3h-78q-27 0 -27.5 14zM135 72v968q0 31 9 46t40 16h129q37 0 43 -13 t6 -49v-968q0 -41 -6 -57q-6 -15 -34 -15h-144q-29 0 -36 15t-7 57z" />
<glyph unicode="&#xef;" horiz-adv-x="497" d="M-86 1325v131q0 25 7 41t38 16h131q33 0 43 -16t10 -41v-121q0 -23 -9.5 -37t-37.5 -14h-127q-35 0 -45 8t-10 33zM135 72v968q0 31 9 46t40 16h129q37 0 43 -13t6 -49v-968q0 -41 -6 -57q-6 -15 -34 -15h-144q-29 0 -36 15t-7 57zM354 1341v121q0 51 45 51h127 q39 0 48 -10t9 -37v-127q0 -23 -8 -39t-37 -16h-119q-43 0 -54 16.5t-11 40.5z" />
<glyph unicode="&#xf0;" horiz-adv-x="1198" d="M104 545q0 143 37 248.5t103.5 176t161 105.5t210.5 35q57 0 118 -19.5t100 -60.5q-29 68 -68 126t-82 108l-66 -66q-23 -23 -29.5 -23.5t-23.5 15.5l-65 65q-16 16 -9 24.5t33 33.5l56 57q-18 16 -38 31.5t-40 30.5q-12 10 -23.5 26.5t10.5 38.5l86 100q16 16 31 3 t29 -25q23 -16 42 -34.5t38 -35.5l47 47q29 29 39 33t20 -6l70 -72q14 -14 8 -25.5t-35 -39.5l-45 -43q74 -84 126 -174t85 -192.5t48.5 -222.5t15.5 -263q0 -279 -129 -424.5t-359 -145.5q-119 0 -212 28t-157.5 93.5t-98.5 174t-34 272.5zM348 449q0 -84 20.5 -143.5 t56.5 -97.5t83 -55.5t102 -17.5q117 0 183.5 92t66.5 246v186q0 135 -56 214t-196 79q-113 0 -186.5 -78.5t-73.5 -224.5v-200z" />
<glyph unicode="&#xf1;" horiz-adv-x="1150" d="M135 76v962q0 31 9.5 47.5t39.5 16.5h131q27 0 38.5 -29t11.5 -100q53 72 130.5 112.5t194.5 40.5q66 0 124 -18t103.5 -59t71 -109t25.5 -166v-680q0 -51 -8.5 -72.5t-36.5 -21.5h-133q-53 0 -54 74v651q0 41 -10 78t-32.5 64.5t-59.5 44t-90 16.5q-59 0 -102.5 -22.5 t-71 -56.5t-41 -76t-13.5 -79v-616q0 -41 -6 -59.5t-34 -18.5h-129q-35 0 -46.5 17.5t-11.5 58.5zM213 1354q12 29 33.5 62.5t50 63t63.5 49t76 19.5q35 0 72 -18.5t73.5 -40t70.5 -39.5t63 -18q43 0 73.5 26.5t46.5 57.5q10 23 29 12l82 -27q18 -8 8 -31 q-45 -90 -103.5 -147t-140.5 -57q-35 0 -70.5 17t-69.5 38.5t-65.5 39t-60.5 17.5q-35 0 -67.5 -24.5t-48.5 -53.5q-8 -14 -14.5 -15t-16.5 3l-76 39q-16 8 -8 27z" />
<glyph unicode="&#xf2;" horiz-adv-x="1198" d="M104 545q0 160 37 271.5t103.5 181t161 101t210.5 31.5q113 0 202 -31.5t150.5 -102t93.5 -181t32 -268.5q0 -279 -129 -424.5t-359 -145.5q-119 0 -212 28t-157.5 93.5t-98.5 174t-34 272.5zM341.5 1567q2.5 14 43.5 14h143q27 0 37 -10t27 -33l186 -262q39 -53 -10 -53 h-80q-20 0 -35.5 10t-30.5 27l-254 264q-29 29 -26.5 43zM348 449q0 -84 20.5 -143.5t56.5 -97.5t83 -55.5t102 -17.5q117 0 183.5 92t66.5 246v186q0 68 -13 125.5t-43 99.5t-78 65.5t-118 23.5q-113 0 -186.5 -78t-73.5 -246v-200z" />
<glyph unicode="&#xf3;" horiz-adv-x="1198" d="M104 545q0 160 37 271.5t103.5 181t161 101t210.5 31.5q113 0 202 -31.5t150.5 -102t93.5 -181t32 -268.5q0 -279 -129 -424.5t-359 -145.5q-119 0 -212 28t-157.5 93.5t-98.5 174t-34 272.5zM348 449q0 -84 20.5 -143.5t56.5 -97.5t83 -55.5t102 -17.5q117 0 183.5 92 t66.5 246v186q0 68 -13 125.5t-43 99.5t-78 65.5t-118 23.5q-113 0 -186.5 -78t-73.5 -246v-200zM475 1276l188 262q16 23 25.5 33t36.5 10h143q43 0 45 -14.5t-27 -42.5l-254 -264q-14 -16 -29.5 -26.5t-35.5 -10.5h-80q-47 0 -12 53z" />
<glyph unicode="&#xf4;" horiz-adv-x="1198" d="M104 545q0 160 37 271.5t103.5 181t161 101t210.5 31.5q113 0 202 -31.5t150.5 -102t93.5 -181t32 -268.5q0 -279 -129 -424.5t-359 -145.5q-119 0 -212 28t-157.5 93.5t-98.5 174t-34 272.5zM310.5 1237q-0.5 14 17.5 39l186 262q12 16 23.5 29.5t34.5 13.5h82 q27 0 37 -13.5t24 -29.5l186 -262q39 -53 -12 -53h-76q-18 0 -28.5 3t-24.5 21l-145 193l-146 -193q-16 -18 -26.5 -21t-26.5 -3h-78q-27 0 -27.5 14zM348 449q0 -84 20.5 -143.5t56.5 -97.5t83 -55.5t102 -17.5q117 0 183.5 92t66.5 246v186q0 68 -13 125.5t-43 99.5 t-78 65.5t-118 23.5q-113 0 -186.5 -78t-73.5 -246v-200z" />
<glyph unicode="&#xf5;" horiz-adv-x="1198" d="M104 545q0 160 37 271.5t103.5 181t161 101t210.5 31.5q113 0 202 -31.5t150.5 -102t93.5 -181t32 -268.5q0 -279 -129 -424.5t-359 -145.5q-119 0 -212 28t-157.5 93.5t-98.5 174t-34 272.5zM238 1354q12 29 33.5 62.5t50 63t63.5 49t76 19.5q35 0 72 -18.5t73.5 -40 t70.5 -39.5t63 -18q43 0 73.5 26.5t46.5 57.5q10 23 29 12l82 -27q18 -8 8 -31q-45 -90 -103.5 -147t-140.5 -57q-35 0 -70.5 17t-69.5 38.5t-65.5 39t-60.5 17.5q-35 0 -67.5 -24.5t-48.5 -53.5q-8 -14 -14.5 -15t-16.5 3l-76 39q-16 8 -8 27zM348 449q0 -84 20.5 -143.5 t56.5 -97.5t83 -55.5t102 -17.5q117 0 183.5 92t66.5 246v186q0 68 -13 125.5t-43 99.5t-78 65.5t-118 23.5q-113 0 -186.5 -78t-73.5 -246v-200z" />
<glyph unicode="&#xf6;" horiz-adv-x="1198" d="M104 545q0 160 37 271.5t103.5 181t161 101t210.5 31.5q113 0 202 -31.5t150.5 -102t93.5 -181t32 -268.5q0 -279 -129 -424.5t-359 -145.5q-119 0 -212 28t-157.5 93.5t-98.5 174t-34 272.5zM277 1325v131q0 25 7 41t38 16h131q33 0 43 -16t10 -41v-121q0 -23 -9.5 -37 t-37.5 -14h-127q-35 0 -45 8t-10 33zM348 449q0 -84 20.5 -143.5t56.5 -97.5t83 -55.5t102 -17.5q117 0 183.5 92t66.5 246v186q0 68 -13 125.5t-43 99.5t-78 65.5t-118 23.5q-113 0 -186.5 -78t-73.5 -246v-200zM717 1341v121q0 51 45 51h127q39 0 48 -10t9 -37v-127 q0 -23 -8 -39t-37 -16h-119q-43 0 -54 16.5t-11 40.5z" />
<glyph unicode="&#xf7;" d="M16 147v1156h1457v-1156h-1457zM176 373.5q2 -4.5 10 -4.5h72q14 0 18.5 5t8.5 21l45 154h243l48 -154q4 -16 6 -21t16 -5h80q14 0 21.5 4t-1.5 28l-204 670q-4 16 -11.5 24.5t-25.5 8.5h-82q-16 0 -23.5 -8.5t-13.5 -24.5l-203 -670q-6 -23 -4 -27.5zM352 625l101 336 l96 -336h-197zM727 1071l207 -678q4 -12 9 -18t22 -6h92q16 0 20 5t8 17l211 690q8 23 -22 23h-64q-10 0 -13 -5t-9 -22l-168 -565l-170 565q-4 16 -7 21.5t-18 5.5h-77q-12 0 -20.5 -5t-0.5 -28z" />
<glyph unicode="&#xf8;" horiz-adv-x="1198" d="M100 12.5q-4 12.5 29 53.5l66 84q-45 66 -68 163t-23 232q0 160 37 271.5t103.5 181t161 101t210.5 31.5q170 0 279 -69l14 18q25 35 41.5 46.5t55.5 11.5h94q27 0 24.5 -13.5t-30.5 -48.5l-95 -121q94 -141 95 -407q0 -279 -129 -424.5t-359 -145.5q-92 0 -169 16.5 t-136 53.5q-23 -31 -37 -39t-37 -8h-90q-33 0 -37 12.5zM348 449q0 -47 6 -91l426 553q-61 61 -172 62q-113 0 -186.5 -78t-73.5 -246v-200zM424 209q35 -39 83 -56.5t103 -17.5q117 0 183.5 92t66.5 246v186q0 29 -2 53.5t-6 49.5q-119 -156 -213 -277q-41 -53 -79 -102 t-68 -88q-37 -45 -68 -86z" />
<glyph unicode="&#xf9;" horiz-adv-x="1150" d="M135 328v702q0 39 9.5 55.5t37.5 16.5h133q53 0 54 -74v-651q0 -41 10 -78t32.5 -64.5t58.5 -44t89 -16.5q57 0 100 22.5t72 56.5t43 76t14 79v616q0 41 6.5 59.5t34.5 18.5h129q35 0 45.5 -17.5t10.5 -58.5v-963q0 -31 -8.5 -47t-38.5 -16h-131q-27 0 -38.5 27.5 t-11.5 99.5q-68 -78 -143.5 -112.5t-183.5 -34.5q-61 0 -118.5 18t-104 60t-74 107.5t-27.5 162.5zM290.5 1567q2.5 14 43.5 14h143q27 0 37 -10t27 -33l186 -262q39 -53 -10 -53h-80q-20 0 -35.5 10t-30.5 27l-254 264q-29 29 -26.5 43z" />
<glyph unicode="&#xfa;" horiz-adv-x="1150" d="M135 328v702q0 39 9.5 55.5t37.5 16.5h133q53 0 54 -74v-651q0 -41 10 -78t32.5 -64.5t58.5 -44t89 -16.5q57 0 100 22.5t72 56.5t43 76t14 79v616q0 41 6.5 59.5t34.5 18.5h129q35 0 45.5 -17.5t10.5 -58.5v-963q0 -31 -8.5 -47t-38.5 -16h-131q-27 0 -38.5 27.5 t-11.5 99.5q-68 -78 -143.5 -112.5t-183.5 -34.5q-61 0 -118.5 18t-104 60t-74 107.5t-27.5 162.5zM459 1276l188 262q16 23 25.5 33t36.5 10h143q43 0 45 -14.5t-27 -42.5l-254 -264q-14 -16 -29.5 -26.5t-35.5 -10.5h-80q-47 0 -12 53z" />
<glyph unicode="&#xfb;" horiz-adv-x="1150" d="M135 328v702q0 39 9.5 55.5t37.5 16.5h133q53 0 54 -74v-651q0 -41 10 -78t32.5 -64.5t58.5 -44t89 -16.5q57 0 100 22.5t72 56.5t43 76t14 79v616q0 41 6.5 59.5t34.5 18.5h129q35 0 45.5 -17.5t10.5 -58.5v-963q0 -31 -8.5 -47t-38.5 -16h-131q-27 0 -38.5 27.5 t-11.5 99.5q-68 -78 -143.5 -112.5t-183.5 -34.5q-61 0 -118.5 18t-104 60t-74 107.5t-27.5 162.5zM273.5 1237q-0.5 14 17.5 39l186 262q12 16 23.5 29.5t34.5 13.5h82q27 0 37 -13.5t24 -29.5l186 -262q39 -53 -12 -53h-76q-18 0 -28.5 3t-24.5 21l-145 193l-146 -193 q-16 -18 -26.5 -21t-26.5 -3h-78q-27 0 -27.5 14z" />
<glyph unicode="&#xfc;" horiz-adv-x="1150" d="M135 328v702q0 39 9.5 55.5t37.5 16.5h133q53 0 54 -74v-651q0 -41 10 -78t32.5 -64.5t58.5 -44t89 -16.5q57 0 100 22.5t72 56.5t43 76t14 79v616q0 41 6.5 59.5t34.5 18.5h129q35 0 45.5 -17.5t10.5 -58.5v-963q0 -31 -8.5 -47t-38.5 -16h-131q-27 0 -38.5 27.5 t-11.5 99.5q-68 -78 -143.5 -112.5t-183.5 -34.5q-61 0 -118.5 18t-104 60t-74 107.5t-27.5 162.5zM242 1325v131q0 25 7 41t38 16h131q33 0 43 -16t10 -41v-121q0 -23 -9.5 -37t-37.5 -14h-127q-35 0 -45 8t-10 33zM682 1341v121q0 51 45 51h127q39 0 48 -10t9 -37v-127 q0 -23 -8 -39t-37 -16h-119q-43 0 -54 16.5t-11 40.5z" />
<glyph unicode="&#xfd;" horiz-adv-x="1083" d="M47 1057q-10 27 1 36t40 9h145q23 0 35.5 -14.5t18.5 -34.5l264 -754l268 754q6 16 20.5 32.5t32.5 16.5h123q33 0 38 -11.5t-7 -41.5l-522 -1407q-12 -29 -27.5 -40.5t-40.5 -11.5h-108q-23 0 -32 11.5t1 36.5l129 362zM463 1276l188 262q16 23 25.5 33t36.5 10h143 q43 0 45 -14.5t-27 -42.5l-254 -264q-14 -16 -29.5 -26.5t-35.5 -10.5h-80q-47 0 -12 53z" />
<glyph unicode="&#xfe;" horiz-adv-x="1169" d="M139 -360v1808q0 35 6.5 54.5t47.5 19.5h124q23 0 36.5 -12.5t13.5 -45.5v-495q59 84 146 122.5t198 38.5q86 0 151.5 -40.5t110.5 -116.5t68.5 -181.5t23.5 -236.5q0 -158 -27.5 -267.5t-77 -179t-116 -100.5t-146.5 -31q-117 0 -196.5 34t-134.5 104v-475 q0 -37 -7.5 -52.5t-29.5 -15.5h-135q-37 0 -46.5 14.5t-9.5 53.5zM383 322q0 -20 15.5 -52t43 -62t68.5 -51.5t94 -21.5q111 0 165 86t54 236v172q0 154 -56 250t-161 96q-59 0 -102 -25.5t-69.5 -63.5t-39 -83t-12.5 -84v-397z" />
<glyph unicode="&#xff;" horiz-adv-x="1083" d="M47 1057q-10 27 1 36t40 9h145q23 0 35.5 -14.5t18.5 -34.5l264 -754l268 754q6 16 20.5 32.5t32.5 16.5h123q33 0 38 -11.5t-7 -41.5l-522 -1407q-12 -29 -27.5 -40.5t-40.5 -11.5h-108q-23 0 -32 11.5t1 36.5l129 362zM213 1325v131q0 25 7 41t38 16h131q33 0 43 -16 t10 -41v-121q0 -23 -9.5 -37t-37.5 -14h-127q-35 0 -45 8t-10 33zM653 1341v121q0 51 45 51h127q39 0 48 -10t9 -37v-127q0 -23 -8 -39t-37 -16h-119q-43 0 -54 16.5t-11 40.5z" />
<glyph unicode="&#x152;" horiz-adv-x="1974" d="M152 403v605q0 274 136 394t419 120q86 0 168.5 -21.5t136.5 -60.5q0 59 37 59h741q37 0 46 -5t9 -28v-120q0 -25 -25.5 -29t-68.5 -4h-455q-35 0 -44 -10.5t-9 -22.5v-354q0 -29 10.5 -38t34.5 -9h406q43 0 54 -8.5t7 -28.5l-14 -115q-4 -33 -36 -36t-60 -3h-340 q-33 0 -45.5 -10t-12.5 -37v-401q0 -35 16.5 -40t43.5 -5h495q41 0 58.5 -7.5t17.5 -31.5v-119q0 -23 -13.5 -30t-29.5 -7h-778q-29 0 -35 23.5t-6 54.5q-27 -31 -66 -50.5t-82 -31.5t-84 -17.5t-71 -5.5q-76 0 -173.5 12.5t-183.5 57.5t-145 130t-59 230zM393 457 q0 -78 29 -132.5t75 -87t102 -47t114 -14.5q55 0 104 9.5t88 34t66.5 69.5t38.5 117v681q-18 123 -92 178.5t-201 55.5q-90 0 -152.5 -21.5t-100.5 -62.5t-54.5 -103.5t-16.5 -142.5v-534z" />
<glyph unicode="&#x153;" horiz-adv-x="1886" d="M104 545q0 160 37 271.5t103.5 181t161 101t210.5 31.5q135 0 224.5 -45t136.5 -147q106 193 354 192q215 0 333 -107.5t118 -324.5v-123q0 -45 -13.5 -66.5t-70.5 -21.5h-627q0 -90 24.5 -153.5t67.5 -104.5t103.5 -60t132.5 -19q127 0 200.5 17t102.5 28q29 10 43 4 t14 -23v-102q0 -29 -13 -39t-54 -23q-12 -4 -44 -10t-74 -11t-91 -9.5t-94 -4.5q-72 0 -134.5 10.5t-116 34t-95.5 63.5t-70 99q-53 -102 -147.5 -154.5t-219.5 -52.5q-119 0 -212 28t-157.5 93.5t-98.5 174t-34 272.5zM348 449q0 -84 20.5 -143.5t56.5 -97.5t83 -55.5 t102 -17.5q117 0 183.5 92t66.5 246v186q0 68 -13 125.5t-43 99.5t-78 65.5t-118 23.5q-113 0 -186.5 -78t-73.5 -246v-200zM1081 674q0 -23 2 -32t25 -9h428q16 0 19.5 8t3.5 31q-4 152 -55.5 231.5t-176.5 79.5q-61 0 -106 -24.5t-76 -66.5t-46.5 -98.5t-17.5 -119.5z" />
<glyph unicode="&#x178;" horiz-adv-x="1288" d="M60 1493q10 6 34 6h178q23 0 32 -8t26 -35l338 -629q25 45 51 99q23 45 52.5 101t62.5 116l167 315q14 23 22.5 32t39.5 9h127q33 0 40 -9t-13 -44q-125 -233 -224 -416q-43 -78 -83 -151.5t-71.5 -132t-50.5 -94.5l-18 -36v-571q0 -27 -10 -36t-37 -9h-162q-23 0 -31 9 t-8 32v577l-456 840q-16 29 -6 35zM334 1694v131q0 25 7 41t38 16h131q33 0 43 -16t10 -41v-121q0 -23 -9.5 -37t-37.5 -14h-127q-35 0 -45 8t-10 33zM774 1710v121q0 51 45 51h127q39 0 48 -10t9 -37v-127q0 -23 -8 -39t-37 -16h-119q-43 0 -54 16.5t-11 40.5z" />
<glyph unicode="&#x2c6;" horiz-adv-x="970" d="M195.5 1237q-0.5 14 17.5 39l186 262q12 16 23.5 29.5t34.5 13.5h82q27 0 37 -13.5t24 -29.5l186 -262q39 -53 -12 -53h-76q-18 0 -28.5 3t-24.5 21l-145 193l-146 -193q-16 -18 -26.5 -21t-26.5 -3h-78q-27 0 -27.5 14z" />
<glyph unicode="&#x2dc;" horiz-adv-x="970" d="M121 1354q12 29 33.5 62.5t50 63t63.5 49t76 19.5q35 0 72 -18.5t73.5 -40t70.5 -39.5t63 -18q43 0 73.5 26.5t46.5 57.5q10 23 29 12l82 -27q18 -8 8 -31q-45 -90 -103.5 -147t-140.5 -57q-35 0 -70.5 17t-69.5 38.5t-65.5 39t-60.5 17.5q-35 0 -67.5 -24.5t-48.5 -53.5 q-8 -14 -14.5 -15t-16.5 3l-76 39q-16 8 -8 27z" />
<glyph unicode="&#x2000;" horiz-adv-x="1028" />
<glyph unicode="&#x2001;" horiz-adv-x="2056" />
<glyph unicode="&#x2002;" horiz-adv-x="1028" />
<glyph unicode="&#x2003;" horiz-adv-x="2056" />
<glyph unicode="&#x2004;" horiz-adv-x="685" />
<glyph unicode="&#x2005;" horiz-adv-x="514" />
<glyph unicode="&#x2006;" horiz-adv-x="342" />
<glyph unicode="&#x2007;" horiz-adv-x="342" />
<glyph unicode="&#x2008;" horiz-adv-x="257" />
<glyph unicode="&#x2009;" horiz-adv-x="411" />
<glyph unicode="&#x200a;" horiz-adv-x="114" />
<glyph unicode="&#x2010;" horiz-adv-x="1050" d="M164 569v101q0 37 14.5 42t48.5 5h588q41 0 58.5 -5t17.5 -34v-100q0 -33 -14.5 -42.5t-61.5 -9.5h-594q-31 0 -44 9.5t-13 33.5z" />
<glyph unicode="&#x2011;" horiz-adv-x="1050" d="M164 569v101q0 37 14.5 42t48.5 5h588q41 0 58.5 -5t17.5 -34v-100q0 -33 -14.5 -42.5t-61.5 -9.5h-594q-31 0 -44 9.5t-13 33.5z" />
<glyph unicode="&#x2012;" horiz-adv-x="1050" d="M164 569v101q0 37 14.5 42t48.5 5h588q41 0 58.5 -5t17.5 -34v-100q0 -33 -14.5 -42.5t-61.5 -9.5h-594q-31 0 -44 9.5t-13 33.5z" />
<glyph unicode="&#x2013;" horiz-adv-x="1415" d="M106 569v101q0 37 13.5 42t48.5 5h1075q41 0 58.5 -5t17.5 -34v-100q0 -33 -14.5 -42.5t-61.5 -9.5h-1081q-31 0 -43.5 9.5t-12.5 33.5z" />
<glyph unicode="&#x2014;" horiz-adv-x="2174" d="M106 569v101q0 37 13.5 42t48.5 5h1829q41 0 59.5 -5t18.5 -34v-100q0 -33 -15.5 -42.5t-62.5 -9.5h-1835q-31 0 -43.5 9.5t-12.5 33.5z" />
<glyph unicode="&#x2018;" horiz-adv-x="509" d="M104 1128q27 123 98.5 222.5t162.5 160.5q14 10 28.5 8.5t24.5 -9t15 -18.5t1 -22q-16 -37 -31.5 -80.5t-28 -89t-20.5 -89.5t-10 -78q-2 -25 -9 -37.5t-30 -12.5h-155q-35 0 -42.5 11t-3.5 34z" />
<glyph unicode="&#x2019;" horiz-adv-x="509" d="M88 1122q16 37 31.5 81t28 89t20.5 89t10 79q2 25 9.5 37t29.5 12h156q35 0 42 -11t3 -34q-27 -123 -98.5 -222t-161.5 -161q-14 -10 -28.5 -9t-25 9.5t-15.5 19.5t-1 21z" />
<glyph unicode="&#x201a;" horiz-adv-x="509" d="M80 -160q16 37 31.5 81t28 89t20.5 89t10 79q2 25 9 37t30 12h156q35 0 42 -11t3 -34q-27 -123 -98.5 -222t-161.5 -161q-14 -10 -29 -9t-25 9t-15 19.5t-1 21.5z" />
<glyph unicode="&#x201c;" horiz-adv-x="905" d="M68 1128q27 123 98.5 222.5t161.5 160.5q14 10 28.5 8.5t24.5 -9t15 -18.5t1 -22q-16 -37 -31.5 -80.5t-27.5 -89t-20.5 -89.5t-10.5 -78q-2 -25 -9 -37.5t-30 -12.5h-155q-35 0 -42 11t-3 34zM467 1128q27 123 98.5 222.5t161.5 160.5q14 10 28.5 8.5t25 -9t15.5 -18.5 t1 -22q-16 -37 -31.5 -80.5t-28 -89t-20.5 -89.5t-10 -78q-2 -25 -9.5 -37.5t-29.5 -12.5h-156q-35 0 -42 11t-3 34z" />
<glyph unicode="&#x201d;" horiz-adv-x="905" d="M109 1122q16 37 31.5 81t27.5 89t20.5 89t10.5 79q2 25 9 37t30 12h155q35 0 42 -11t3 -34q-27 -123 -98.5 -222t-161.5 -161q-14 -10 -28.5 -9t-24.5 9.5t-15.5 19.5t-0.5 21zM510 1122q16 37 31.5 81t28 89t20.5 89t10 79q2 25 9 37t30 12h156q35 0 42 -11t3 -34 q-27 -123 -98.5 -222t-161.5 -161q-14 -10 -28.5 -9t-25 9.5t-15.5 19.5t-1 21z" />
<glyph unicode="&#x201e;" horiz-adv-x="905" d="M86 -160q16 37 31.5 81t28 89t20.5 89t10 79q2 25 9.5 37t29.5 12h156q35 0 42 -11t3 -34q-27 -123 -98.5 -222t-161.5 -161q-14 -10 -28.5 -9t-25 9t-15.5 19.5t-1 21.5zM487 -160q16 37 32 81t28 89t20 89t11 79q2 25 9 37t29 12h156q35 0 42 -11t3 -34 q-27 -123 -98.5 -222t-161.5 -161q-14 -10 -28.5 -9t-24.5 9t-15.5 19.5t-1.5 21.5z" />
<glyph unicode="&#x2022;" horiz-adv-x="913" d="M131 659q0 68 26.5 129.5t71.5 106.5t106.5 71.5t129.5 26.5t129 -26.5t106 -71.5t72 -106.5t27 -129.5t-27 -129t-72 -106t-106.5 -71.5t-128.5 -26.5q-68 0 -129.5 26.5t-106.5 71.5t-71.5 106.5t-26.5 128.5z" />
<glyph unicode="&#x2026;" horiz-adv-x="1486" d="M117 66v110q0 20 10 37.5t31 17.5h168q45 0 54 -12t9 -35v-110q0 -27 -5 -50.5t-44 -23.5h-158q-39 0 -52 19.5t-13 46.5zM618 66v110q0 20 10.5 37.5t30.5 17.5h168q45 0 54.5 -12t9.5 -35v-110q0 -27 -5 -50.5t-44 -23.5h-158q-39 0 -52.5 19.5t-13.5 46.5zM1112 66 v110q0 20 10.5 37.5t30.5 17.5h168q45 0 54 -12t9 -35v-110q0 -27 -5 -50.5t-44 -23.5h-157q-39 0 -52.5 19.5t-13.5 46.5z" />
<glyph unicode="&#x202f;" horiz-adv-x="411" />
<glyph unicode="&#x2039;" horiz-adv-x="714" d="M92 655l303 447q14 23 26.5 30t31.5 -6l102 -57q16 -12 16 -24.5t-16 -34.5l-248 -355l260 -360q25 -37 -6 -51l-102 -58q-18 -10 -30.5 -3t-25.5 28z" />
<glyph unicode="&#x203a;" horiz-adv-x="714" d="M128.5 262q-1.5 10 12.5 33l262 362l-247 353q-29 39 0 55l100 61q20 14 32.5 5t28.5 -31l299 -443l-311 -450q-12 -16 -23.5 -23.5t-29.5 2.5l-102 56q-20 10 -21.5 20z" />
<glyph unicode="&#x205f;" horiz-adv-x="514" />
<glyph unicode="&#x2122;" horiz-adv-x="1267" d="M20 1413v72q0 14 29 14h424q29 0 29 -10v-76q0 -6 -3 -10t-18 -4h-119q-16 0 -19 -5t-3 -18v-454q0 -20 -5 -28.5t-22 -8.5h-84q-16 0 -21 6t-5 31v454q0 12 -4 17.5t-21 5.5h-137q-14 0 -17.5 3t-3.5 11zM580 922v544q0 20 6 26.5t20 6.5h90q10 0 18.5 -2t16.5 -14 l150 -283q6 -12 14 -4l147 285q10 18 33 18h96q16 0 19.5 -8t3.5 -27v-549q0 -16 -4 -23t-21 -7h-75q-20 0 -26.5 8t-6.5 29v378q0 14 -2 14.5t-12 -16.5l-125 -245q-10 -16 -13.5 -20.5t-13.5 -4.5h-23q-10 0 -14 5t-14 24l-117 239q-16 23 -16 -2v-381q0 -10 -4.5 -19 t-20.5 -9h-74q-12 0 -22 5t-10 32z" />
<glyph unicode="&#x25fc;" horiz-adv-x="1105" d="M0 0v1106h1106v-1106h-1106z" />
<glyph unicode="&#xfb01;" horiz-adv-x="1202" d="M84 985v72q0 45 33 45h98q-12 23 -24.5 55.5t-10.5 110.5q0 51 14.5 97t46 81t83 55.5t125.5 20.5q66 0 110.5 -8.5t69.5 -18.5q8 -4 7 -28.5t-6 -53.5t-13.5 -51.5t-14.5 -22.5q-33 8 -47 11.5t-49 3.5q-41 0 -72 -23.5t-31 -89.5q0 -53 17.5 -83t40.5 -56h557 q37 0 43 -13.5t6 -48.5v-968q0 -41 -5 -56.5t-36 -15.5h-143q-29 0 -35 15.5t-6 56.5v872h-377v-876q0 -68 -47 -68h-125q-23 0 -40 12.5t-17 40.5v891h-107q-29 0 -37 8.5t-8 32.5zM842 1366v74q0 35 10 47t45 12h129q33 0 37 -17.5t4 -51.5v-70q0 -37 -7 -49.5t-34 -12.5 h-135q-31 0 -40 12.5t-9 55.5z" />
<glyph unicode="&#xfb02;" horiz-adv-x="1202" d="M84 956v70q0 43 33 43h102q-12 25 -26.5 67t-12.5 119q0 49 14.5 97.5t46 86.5t83 60.5t125.5 22.5q66 0 110.5 -8.5t69.5 -18.5q8 -4 7 -28.5t-6 -53.5t-13.5 -51.5t-14.5 -22.5q-33 8 -47 11.5t-49 3.5q-41 0 -72 -31t-31 -94q0 -53 17.5 -92t40.5 -66h137q33 0 40 -10 t7 -31v-72q0 -18 -8 -31.5t-39 -13.5h-133v-845q0 -68 -47 -68h-125q-23 0 -40 12.5t-17 40.5v860h-107q-29 0 -37 9.5t-8 33.5zM842 68v1398q0 29 9 42.5t40 13.5h129q37 0 42 -13.5t5 -48.5v-1388q0 -41 -5 -56.5t-34 -15.5h-135q-33 0 -42 12.5t-9 55.5z" />
</font>
</defs>
</svg>
